<svg width="473" height="945" viewBox="0 0 473 945" fill="none" xmlns="http://www.w3.org/2000/svg">
<path fill-rule="evenodd" clip-rule="evenodd" d="M274.961 472.5C274.961 320.645 151.858 197.542 0.00325457 197.542C0.00218645 197.542 0.00111833 197.542 5.02206e-05 197.542L5.25763e-05 -0.000127705C62.0496 -0.000126965 123.492 12.2214 180.818 35.9668C238.144 59.7122 290.232 94.5162 334.108 138.392C377.984 182.268 412.788 234.356 436.533 291.682C460.279 349.008 472.5 410.45 472.5 472.5C472.5 534.55 460.279 595.992 436.533 653.318C412.788 710.644 377.984 762.732 334.108 806.608C290.232 850.484 238.144 885.288 180.818 909.033C123.492 932.778 62.0496 945 0 945L1.96254e-05 747.458C0.00109575 747.458 0.00217188 747.458 0.00324801 747.458C151.858 747.458 274.961 624.355 274.961 472.5Z" fill="#EBC89D"/>
</svg>
