<svg width="588" height="600" viewBox="0 0 588 600" fill="none" xmlns="http://www.w3.org/2000/svg">
<rect width="588" height="600" fill="#F8DDAD"/>
<path fill-rule="evenodd" clip-rule="evenodd" d="M152.854 300C237.273 300 305.708 232.843 305.708 150C305.708 67.1573 237.273 0 152.854 0C68.4352 0 0 67.1573 0 150C0 232.843 68.4352 300 152.854 300ZM152.855 237.288C201.98 237.288 241.804 198.208 241.804 150C241.804 101.792 201.98 62.7118 152.855 62.7118C103.73 62.7118 63.9057 101.792 63.9057 150C63.9057 198.208 103.73 237.288 152.855 237.288Z" fill="#151667"/>
<ellipse cx="152.5" cy="150" rx="76.5" ry="75" fill="#E03E33"/>
<rect y="300" width="306" height="62" fill="#E03E33"/>
<ellipse cx="305.5" cy="450" rx="76.5" ry="75" fill="#F0B024"/>
<path fill-rule="evenodd" clip-rule="evenodd" d="M394.659 450C394.658 401.792 354.835 362.712 305.71 362.712C305.709 362.712 305.709 362.712 305.709 362.712V300C325.782 300 345.659 303.88 364.204 311.418C382.749 318.956 399.599 330.005 413.793 343.934C427.987 357.863 439.246 374.399 446.928 392.597C454.609 410.796 458.563 430.302 458.563 450L394.659 450Z" fill="#E5732C"/>
<path fill-rule="evenodd" clip-rule="evenodd" d="M216.759 450L152.854 450C152.854 469.698 156.808 489.204 164.49 507.403C172.171 525.601 183.431 542.137 197.624 556.066C211.818 569.995 228.669 581.044 247.214 588.582C265.759 596.12 285.636 600 305.709 600C325.782 600 345.658 596.12 364.203 588.582C382.749 581.044 399.599 569.995 413.793 556.066C427.987 542.137 439.246 525.601 446.928 507.403C454.609 489.204 458.563 469.698 458.563 450H394.657C394.657 498.208 354.833 537.288 305.708 537.288C256.583 537.288 216.759 498.208 216.759 450Z" fill="#4FB8B5"/>
<path d="M153 387C102.492 387 89.2883 429.667 89 451H153V387Z" fill="#E5732C"/>
<rect x="89" y="600" width="149" height="64" transform="rotate(-90 89 600)" fill="#151667"/>
<path fill-rule="evenodd" clip-rule="evenodd" d="M305.708 0C305.708 41.4214 339.926 75 382.135 75C424.345 75 458.562 41.4214 458.562 0L305.708 0Z" fill="#E5732C"/>
<ellipse cx="382.5" cy="150" rx="76.5" ry="75" fill="#4FB8B5"/>
<path fill-rule="evenodd" clip-rule="evenodd" d="M458.563 300C458.563 258.579 424.346 225 382.136 225C339.927 225 305.709 258.579 305.709 300H458.563Z" fill="#E03E33"/>
<path fill-rule="evenodd" clip-rule="evenodd" d="M512.676 127.019C512.676 167.841 546.398 200.933 587.997 200.933C587.998 200.933 587.998 200.933 587.999 200.933L587.999 254.037C571.001 254.037 554.17 250.752 538.466 244.369C522.762 237.985 508.493 228.629 496.474 216.834C484.455 205.04 474.921 191.037 468.416 175.627C461.911 160.216 458.563 143.699 458.563 127.019C458.563 110.338 461.911 93.8213 468.416 78.4107C474.921 63.0001 484.455 48.9977 496.474 37.2029C508.493 25.4081 522.762 16.052 538.466 9.66872C554.17 3.28543 571.001 -7.26598e-07 587.999 0L587.999 53.1038C587.998 53.1038 587.998 53.1038 587.997 53.1038C546.398 53.1038 512.676 86.1966 512.676 127.019Z" fill="#F0B024"/>
<path fill-rule="evenodd" clip-rule="evenodd" d="M588 63.5094C552.257 63.5094 523.282 91.9435 523.282 127.019C523.282 162.094 552.257 190.528 588 190.528V63.5094Z" fill="#4FB8B5"/>
<path fill-rule="evenodd" clip-rule="evenodd" d="M587.997 330.509C587.997 365.585 559.022 394.019 523.279 394.019V330.509H587.997C587.997 330.509 587.997 330.509 587.997 330.509Z" fill="#E5732C"/>
<path d="M217 451C217 400.492 174.333 387.288 153 387V451H217Z" fill="#E5732C"/>
<path fill-rule="evenodd" clip-rule="evenodd" d="M458.562 330.509C458.562 295.434 487.537 267 523.279 267V330.509H458.562Z" fill="#F0B024"/>
<path fill-rule="evenodd" clip-rule="evenodd" d="M458.562 526.509C458.562 561.585 487.538 590.019 523.28 590.019C559.023 590.019 587.998 561.585 587.998 526.509H458.562Z" fill="#2AA0A1"/>
<path fill-rule="evenodd" clip-rule="evenodd" d="M458.562 526.509C458.562 491.434 487.537 463 523.279 463V526.509H458.562Z" fill="#151667"/>
<path d="M76 600C76 540.811 25.3333 525.338 0 525L0 600H76Z" fill="#E03E33"/>
</svg>
