<svg width="84" height="84" viewBox="0 0 84 84" fill="none" xmlns="http://www.w3.org/2000/svg">
<path d="M42 83.4956C64.9152 83.4956 83.4916 64.9192 83.4916 42.004C83.4916 19.0889 64.9152 0.512451 42 0.512451C19.0848 0.512451 0.508423 19.0889 0.508423 42.004C0.508423 64.9192 19.0848 83.4956 42 83.4956Z" fill="#D74D3F"/>
<path d="M41.9999 27.6408C48.3456 27.6408 53.4897 22.4967 53.4897 16.151C53.4897 9.80541 48.3456 4.66125 41.9999 4.66125C35.6543 4.66125 30.5101 9.80541 30.5101 16.151C30.5101 22.4967 35.6543 27.6408 41.9999 27.6408Z" stroke="#E9A979" stroke-width="1.19561" stroke-miterlimit="10"/>
<path d="M47.1689 27.6409H36.8269V44.8776H47.1689V27.6409Z" stroke="#E9A979" stroke-width="1.19561" stroke-miterlimit="10"/>
<path d="M47.1689 44.8774H36.8269V62.1141H47.1689V44.8774Z" stroke="#E9A979" stroke-width="1.19561" stroke-miterlimit="10"/>
<path d="M47.1689 62.1143H36.8269V79.3509H47.1689V62.1143Z" stroke="#E9A979" stroke-width="1.19561" stroke-miterlimit="10"/>
</svg>
