<svg width="98" height="99" viewBox="0 0 98 99" fill="none" xmlns="http://www.w3.org/2000/svg">
<g clip-path="url(#clip0_698_4943)">
<path d="M53.3865 1.20241C53.4657 1.20659 53.532 1.2358 53.5852 1.29003C53.6387 1.3396 53.6633 1.40401 53.6592 1.48326C53.6572 1.52055 53.6457 1.56201 53.6245 1.60765L51.5711 5.83975C51.54 5.89888 51.4979 5.9434 51.4449 5.97333C51.3968 5.99884 51.3448 6.01012 51.2888 6.00717C51.2378 5.9998 51.1897 5.9809 51.1446 5.95047C51.0997 5.91538 51.067 5.86925 51.0467 5.81208L49.4566 1.39477C49.4483 1.37563 49.4423 1.35661 49.4386 1.33772C49.4352 1.31417 49.4341 1.29073 49.4353 1.26743C49.44 1.17885 49.4738 1.11286 49.5369 1.06944C49.6049 1.0216 49.6691 0.999283 49.7297 1.00248C49.8556 1.00912 49.9431 1.07918 49.9921 1.21266L51.4531 5.28658L51.2922 5.2781L53.1185 1.36358C53.1806 1.24999 53.2699 1.19626 53.3865 1.20241Z" fill="#D74D3F"/>
<path d="M58.9146 4.52005C58.8551 4.87454 58.7423 5.19404 58.5762 5.47857C58.4109 5.75849 58.2057 5.99386 57.9606 6.18466C57.7156 6.37547 57.4399 6.50906 57.1336 6.58544C56.8273 6.66182 56.5061 6.67181 56.17 6.61538C55.8294 6.55819 55.5267 6.44348 55.2622 6.27126C55.0022 6.09982 54.7876 5.88391 54.6183 5.62355C54.449 5.36318 54.3319 5.07372 54.2671 4.75515C54.203 4.43198 54.2007 4.09315 54.2602 3.73866C54.3205 3.37957 54.4333 3.06006 54.5986 2.78014C54.7647 2.49561 54.9699 2.26025 55.2142 2.07405C55.4592 1.88324 55.7326 1.74926 56.0343 1.67211C56.3406 1.59573 56.6641 1.58613 57.0048 1.64332C57.3408 1.69975 57.6412 1.81407 57.9057 1.98629C58.1703 2.15851 58.3872 2.3748 58.5565 2.63516C58.7266 2.89092 58.8437 3.18039 58.9077 3.50356C58.9726 3.82212 58.9749 4.16095 58.9146 4.52005ZM58.3207 4.42035C58.3841 4.04284 58.3642 3.69631 58.2609 3.38077C58.1623 3.066 57.998 2.80411 57.768 2.59509C57.538 2.38607 57.2527 2.25297 56.912 2.19578C56.5713 2.13858 56.2559 2.17083 55.9656 2.29251C55.68 2.41496 55.4392 2.60884 55.2432 2.87414C55.0472 3.13945 54.9175 3.46086 54.8541 3.83836C54.7915 4.21127 54.8091 4.55741 54.907 4.87678C55.0056 5.19155 55.1699 5.45344 55.3999 5.66246C55.6345 5.87225 55.9221 6.00574 56.2628 6.06293C56.6035 6.12013 56.9166 6.0875 57.2023 5.96504C57.4879 5.84259 57.7287 5.64871 57.9247 5.38341C58.1261 5.11427 58.2581 4.79325 58.3207 4.42035Z" fill="#D74D3F"/>
<path d="M60.0529 7.07328C60.033 7.15026 59.9867 7.20833 59.9138 7.2475C59.8455 7.28783 59.7728 7.29808 59.6958 7.27824C59.6098 7.25606 59.5489 7.21139 59.5131 7.14421C59.4772 7.07704 59.4693 7.00496 59.4891 6.92798L60.571 2.7304C60.592 2.64889 60.6361 2.59023 60.7032 2.55443C60.7716 2.5141 60.8465 2.50443 60.928 2.52544C61.005 2.54528 61.0636 2.58937 61.104 2.65771C61.1455 2.72153 61.1557 2.79419 61.1347 2.87569L60.0529 7.07328Z" fill="#D74D3F"/>
<path d="M61.5025 7.76826C61.4185 7.73974 61.3545 7.68844 61.3107 7.61438C61.2712 7.54182 61.2643 7.46797 61.2898 7.39283L62.6838 3.28869C62.7093 3.21355 62.7546 3.15992 62.8198 3.12781C62.8908 3.09279 62.9639 3.08803 63.0391 3.11356L64.869 3.7351C65.1165 3.81917 65.3202 3.95245 65.4801 4.13493C65.6415 4.313 65.7459 4.521 65.7932 4.75894C65.8465 4.99397 65.8296 5.23966 65.7425 5.49603C65.6795 5.68168 65.5848 5.84427 65.4586 5.98379C65.3338 6.1189 65.1892 6.22511 65.0249 6.30242C64.8621 6.3753 64.6907 6.41567 64.5105 6.4235L64.4007 6.26787C64.539 6.35428 64.652 6.46416 64.7398 6.59752C64.8292 6.72646 64.8874 6.87441 64.9145 7.04138C64.9431 7.20393 64.9281 7.37878 64.8694 7.56593C64.8227 7.73248 64.7895 7.86663 64.7697 7.96837C64.7499 8.07012 64.7436 8.15423 64.7506 8.2207C64.7591 8.28275 64.7824 8.3375 64.8205 8.38496C64.8689 8.44576 64.8906 8.51231 64.8858 8.58462C64.8854 8.65843 64.8525 8.71877 64.7873 8.76564C64.7473 8.79641 64.7 8.81238 64.6453 8.81355C64.5922 8.8103 64.5421 8.7982 64.495 8.77727C64.4478 8.75633 64.4104 8.72881 64.3825 8.6947C64.3253 8.6309 64.2763 8.55016 64.2355 8.4525C64.1962 8.35042 64.1793 8.21894 64.1846 8.05806C64.1899 7.89718 64.2354 7.69076 64.321 7.43881C64.369 7.29737 64.3867 7.17272 64.374 7.06489C64.3614 6.95705 64.3272 6.86164 64.2716 6.77866C64.216 6.69567 64.1455 6.62736 64.0602 6.57374C63.9748 6.52011 63.8836 6.47678 63.7863 6.44375L62.3078 5.94156L62.4279 5.84924L61.8401 7.57974C61.8146 7.65489 61.7707 7.71147 61.7085 7.7495C61.6463 7.78753 61.5776 7.79378 61.5025 7.76826ZM62.4699 5.46418L64.0943 6.01591C64.2255 6.05061 64.3599 6.04694 64.4974 6.00491C64.6394 5.96438 64.7697 5.88541 64.8885 5.76798C65.0132 5.64764 65.1063 5.49685 65.1678 5.31563C65.2474 5.08136 65.2383 4.86135 65.1406 4.6556C65.0473 4.45135 64.8879 4.31094 64.6625 4.23437L63.0977 3.70291L63.1935 3.59495L62.5089 5.61055L62.4699 5.46418Z" fill="#D74D3F"/>
<path d="M72.9539 7.41538C73.024 7.4526 73.0676 7.50483 73.0847 7.57208C73.104 7.6352 73.0962 7.69975 73.0612 7.76572L71.0217 11.6062C70.9801 11.6845 70.9215 11.7353 70.8457 11.7585C70.7721 11.7776 70.7003 11.7685 70.6302 11.7313C70.5931 11.7116 70.5593 11.6857 70.5288 11.6536C70.5004 11.6174 70.4825 11.5815 70.475 11.5458L69.6869 6.63985L69.85 6.63132L68.0306 10.0575C67.9956 10.1234 67.9434 10.167 67.8739 10.1883C67.8108 10.2076 67.7442 10.1987 67.6741 10.1615C67.6081 10.1265 67.5655 10.0774 67.5462 10.0143C67.529 9.94701 67.5379 9.8804 67.573 9.81443L69.619 5.96158C69.6584 5.88736 69.7128 5.83962 69.7823 5.81835C69.8558 5.79928 69.9256 5.80725 69.9916 5.84228C70.0287 5.86199 70.0614 5.88994 70.0897 5.92613C70.1244 5.9604 70.1444 5.99743 70.1497 6.03724L70.9269 10.874L70.794 10.9303L72.6035 7.52269C72.6386 7.45672 72.6876 7.41407 72.7508 7.39474C72.8202 7.37347 72.8879 7.38035 72.9539 7.41538Z" fill="#D74D3F"/>
<path d="M76.919 12.9975C76.7141 13.2923 76.476 13.5327 76.2047 13.7188C75.936 13.9011 75.6504 14.0262 75.3478 14.094C75.0451 14.1618 74.7392 14.1649 74.43 14.1033C74.1209 14.0417 73.8266 13.9138 73.5471 13.7195C73.2639 13.5226 73.0395 13.29 72.874 13.0217C72.7123 12.756 72.6106 12.4695 72.5687 12.1622C72.5268 11.8549 72.5445 11.5436 72.6218 11.2282C72.7017 10.9091 72.8441 10.6021 73.049 10.3074C73.2565 10.0088 73.4946 9.76836 73.7633 9.58606C74.0346 9.39994 74.3202 9.27488 74.6202 9.21088C74.9229 9.14305 75.2269 9.13862 75.5322 9.19758C75.8414 9.2592 76.1376 9.38846 76.4209 9.58536C76.7003 9.77961 76.9228 10.0109 77.0882 10.2792C77.2537 10.5475 77.3574 10.8354 77.3993 11.1427C77.4438 11.4461 77.4261 11.7575 77.3462 12.0766C77.2689 12.392 77.1265 12.6989 76.919 12.9975ZM76.4252 12.6543C76.6434 12.3404 76.7731 12.0189 76.8145 11.69C76.8596 11.3637 76.8229 11.0571 76.7043 10.7703C76.5857 10.4835 76.3848 10.2416 76.1016 10.0447C75.8183 9.84781 75.5197 9.74242 75.2057 9.72856C74.8955 9.71736 74.5954 9.78976 74.3053 9.94577C74.0151 10.1018 73.761 10.3367 73.5428 10.6506C73.3272 10.9607 73.1956 11.2808 73.1478 11.6109C73.1026 11.9372 73.1394 12.2438 73.2579 12.5306C73.3803 12.8201 73.5832 13.0633 73.8664 13.2602C74.1497 13.4571 74.4464 13.5611 74.7566 13.5723C75.0667 13.5835 75.3668 13.5111 75.657 13.3551C75.9536 13.1979 76.2097 12.9643 76.4252 12.6543Z" fill="#D74D3F"/>
<path d="M77.242 16.6176C76.983 16.3896 76.7893 16.1508 76.661 15.9012C76.5327 15.6517 76.4515 15.3628 76.4173 15.0345C76.4144 14.9884 76.4165 14.9437 76.4236 14.9003C76.4373 14.8564 76.4596 14.817 76.4904 14.782C76.5397 14.726 76.6021 14.6939 76.6776 14.6858C76.7597 14.6772 76.8304 14.6991 76.89 14.7515C76.939 14.7947 76.9658 14.8524 76.9704 14.9248C76.9899 15.178 77.0476 15.409 77.1435 15.6176C77.2429 15.8294 77.3924 16.0231 77.592 16.1987C77.7461 16.3342 77.9059 16.4314 78.0716 16.4903C78.2408 16.5522 78.4006 16.5717 78.5512 16.5489C78.7017 16.526 78.8278 16.4569 78.9295 16.3413C79.0493 16.1982 79.1089 16.0457 79.1085 15.8838C79.1116 15.725 79.0693 15.5542 78.9816 15.3714C78.9005 15.1883 78.7874 14.9956 78.6424 14.7933C78.5152 14.6131 78.408 14.4349 78.3207 14.2587C78.237 14.0856 78.1815 13.9157 78.1544 13.7489C78.1303 13.5786 78.1411 13.411 78.1867 13.2462C78.239 13.0809 78.3344 12.9195 78.473 12.762C78.6487 12.5624 78.8552 12.4336 79.0927 12.3754C79.3303 12.3173 79.5772 12.3296 79.8337 12.4124C80.0932 12.4917 80.3437 12.6376 80.5853 12.8502C80.7988 13.0381 80.9694 13.2503 81.0968 13.4867C81.2277 13.7262 81.2971 13.958 81.3048 14.1822C81.3162 14.3104 81.2943 14.406 81.2388 14.469C81.1926 14.5215 81.1267 14.5505 81.0411 14.556C80.9621 14.561 80.8946 14.5389 80.8386 14.4896C80.8001 14.4557 80.7774 14.4109 80.7706 14.3551C80.7696 14.2362 80.7467 14.1105 80.7019 13.9778C80.6571 13.8452 80.5942 13.7154 80.5134 13.5884C80.4326 13.4614 80.338 13.3501 80.2294 13.2546C80.0684 13.1129 79.905 13.0126 79.7393 12.9538C79.5767 12.8914 79.4219 12.8732 79.2749 12.8991C79.1344 12.9246 79.0118 12.9969 78.907 13.1159C78.79 13.249 78.7314 13.3932 78.7314 13.5485C78.7345 13.7003 78.7762 13.8612 78.8564 14.0312C78.9397 14.1977 79.0417 14.3713 79.1623 14.552C79.2969 14.7449 79.4113 14.9326 79.5055 15.1149C79.6064 15.2969 79.6739 15.4743 79.708 15.6473C79.7422 15.8202 79.7318 15.9944 79.6769 16.1697C79.6286 16.3446 79.5244 16.5231 79.3641 16.7052C79.1947 16.8977 78.9895 17.0215 78.7484 17.0766C78.5074 17.1316 78.2539 17.1197 77.9878 17.0408C77.7283 16.9616 77.4797 16.8205 77.242 16.6176Z" fill="#D74D3F"/>
<path d="M82.7916 21.3924C82.844 21.4519 82.8677 21.5212 82.8626 21.6002C82.8611 21.6761 82.8306 21.7402 82.7711 21.7926C82.7115 21.845 82.644 21.8671 82.5686 21.859C82.4931 21.8508 82.4291 21.817 82.3768 21.7575L80.7777 19.9404C80.7253 19.8809 80.7017 19.8116 80.7067 19.7327C80.7148 19.6572 80.7487 19.5932 80.8082 19.5409L84.059 16.6802C84.1185 16.6278 84.186 16.6056 84.2615 16.6138C84.3405 16.6188 84.4077 16.6528 84.4632 16.7159C84.5155 16.7754 84.5392 16.8446 84.5342 16.9236C84.5326 16.9995 84.5021 17.0637 84.4426 17.116L81.2968 19.8843L81.2989 19.6961L82.7916 21.3924Z" fill="#D74D3F"/>
<path d="M87.4013 21.5801L83.2026 22.5703C83.1464 22.5876 83.0916 22.5869 83.038 22.568C82.9845 22.5492 82.9428 22.5189 82.913 22.4773C82.8616 22.4055 82.8426 22.339 82.856 22.2779C82.8695 22.2168 82.9027 22.1673 82.9556 22.1294C82.9794 22.1067 83.0104 22.0901 83.0488 22.0798L87.6739 20.9902C87.7404 20.9712 87.7985 20.9725 87.8483 20.994C87.9045 21.0167 87.9484 21.0539 87.9798 21.1058C88.015 21.155 88.0329 21.2079 88.0335 21.2647C88.0368 21.3252 88.0212 21.3793 87.9867 21.4269L85.4953 25.4245C85.4731 25.4575 85.4469 25.4849 85.4167 25.5065C85.3486 25.5553 85.2776 25.5718 85.2035 25.5562C85.1332 25.5379 85.0777 25.5004 85.0371 25.4437C85.0046 25.3983 84.9881 25.3473 84.9874 25.2905C84.9868 25.2337 85.0043 25.1783 85.04 25.1242L87.3177 21.4512L87.4013 21.5801ZM84.3302 22.1919L84.9107 22.0679L86.1169 23.7524L85.7354 24.1543L84.3302 22.1919Z" fill="#D74D3F"/>
<path d="M90.0839 24.164C90.1042 24.2008 90.1154 24.2452 90.1174 24.2974C90.1218 24.3536 90.1143 24.403 90.0951 24.4456L88.5306 27.4255L88.4185 27.2074L91.7772 27.5002C91.8842 27.5106 91.9592 27.5598 92.0024 27.648C92.0344 27.7156 92.0414 27.7864 92.0234 27.8602C92.0055 27.9341 91.9597 27.9913 91.8861 28.0318L88.0893 30.1226C88.0197 30.1608 87.9469 30.169 87.8708 30.1469C87.7947 30.1249 87.7364 30.077 87.6959 30.0034C87.6554 29.9298 87.6461 29.855 87.6682 29.7789C87.6902 29.7028 87.736 29.6456 87.8055 29.6073L91.1362 27.7733L91.1899 27.9435L88.1908 27.7085C88.1487 27.6997 88.1072 27.6826 88.0665 27.657C88.0281 27.6356 87.9987 27.6064 87.9784 27.5696C87.9582 27.5328 87.9481 27.4904 87.9483 27.4423C87.9485 27.3943 87.9561 27.3501 87.9712 27.3098L89.3863 24.6681L89.6167 24.709L86.1572 26.614C86.0877 26.6523 86.016 26.6625 85.9422 26.6445C85.8684 26.6266 85.8123 26.5828 85.774 26.5133C85.7357 26.4438 85.7287 26.373 85.753 26.301C85.7796 26.2331 85.8276 26.18 85.8972 26.1417L89.694 24.051C89.7594 24.0149 89.829 24.0059 89.9029 24.0239C89.983 24.0437 90.0434 24.0904 90.0839 24.164Z" fill="#D74D3F"/>
<path d="M93.6303 31.2686C93.7278 31.5074 93.757 31.7462 93.7179 31.9851C93.6787 32.2241 93.5793 32.4395 93.4196 32.6314C93.2617 32.8276 93.0525 32.979 92.792 33.0854C92.5358 33.1901 92.2805 33.2285 92.026 33.2008C91.7733 33.1774 91.5471 33.095 91.3475 32.9537C91.1479 32.8123 90.9993 32.6223 90.9017 32.3835L90.3615 31.0615L90.4583 31.0752L88.8173 31.7457C88.7435 31.7759 88.6708 31.7777 88.5991 31.7513C88.5275 31.7248 88.4766 31.6747 88.4465 31.6009C88.4146 31.5227 88.4149 31.4491 88.4475 31.3801C88.4818 31.3154 88.5359 31.2679 88.6097 31.2378L92.6407 29.5907C92.7145 29.5606 92.7851 29.5596 92.8523 29.5878C92.9257 29.6186 92.9775 29.671 93.0076 29.7448L93.6303 31.2686ZM91.4031 32.1786C91.4617 32.3219 91.5522 32.4318 91.6747 32.5084C91.7972 32.585 91.939 32.6284 92.1002 32.6385C92.2614 32.6487 92.4201 32.6218 92.5764 32.5579C92.7414 32.4905 92.8735 32.3985 92.9728 32.282C93.0721 32.1654 93.1365 32.0378 93.166 31.8991C93.1998 31.7586 93.1874 31.6167 93.1288 31.4735L92.5887 30.1515L92.6789 30.1678L90.8165 30.9288L90.863 30.8567L91.4031 32.1786Z" fill="#D74D3F"/>
<path d="M94.6128 34.1146L95.3308 36.5017C95.3537 36.5777 95.3486 36.6499 95.3155 36.7184C95.2825 36.7868 95.228 36.8325 95.152 36.8553C95.076 36.8782 95.0053 36.8702 94.94 36.8313C94.8792 36.7911 94.8373 36.733 94.8145 36.657L94.1651 34.4979L94.2972 34.5239L92.6007 35.0342L92.6543 34.9449L93.215 36.8091C93.2378 36.8851 93.2328 36.9573 93.1997 37.0257C93.1667 37.0942 93.1122 37.1398 93.0362 37.1627C92.9602 37.1855 92.8895 37.1775 92.8242 37.1387C92.7634 37.0985 92.7215 37.0404 92.6987 36.9644L92.144 35.1204L92.2185 35.1491L90.4818 35.6715L90.5166 35.6172L91.16 37.7562C91.1828 37.8322 91.1755 37.9051 91.138 37.9749C91.1005 38.0447 91.0482 38.0896 90.9812 38.1098C90.9052 38.1327 90.8345 38.1247 90.7692 38.0858C90.7039 38.047 90.6598 37.9895 90.6369 37.9135L89.9189 35.5264C89.8961 35.4504 89.9034 35.3775 89.9409 35.3077C89.9798 35.2424 90.0372 35.1983 90.1132 35.1755L94.2639 33.927C94.3399 33.9042 94.4099 33.9099 94.4739 33.9443C94.5436 33.9818 94.59 34.0386 94.6128 34.1146Z" fill="#D74D3F"/>
<path d="M91.1468 40.5247C91.0787 40.186 91.0693 39.8784 91.1185 39.6018C91.1677 39.3253 91.2782 39.046 91.4501 38.7639C91.4757 38.7254 91.5045 38.691 91.5365 38.6608C91.574 38.6342 91.6157 38.6163 91.6614 38.6071C91.7347 38.5924 91.8038 38.6047 91.8688 38.644C91.9394 38.687 91.9824 38.7474 91.9981 38.8252C92.011 38.8893 91.9973 38.9515 91.957 39.012C91.819 39.2254 91.7249 39.4443 91.6747 39.6686C91.6255 39.8976 91.6271 40.1425 91.6795 40.4033C91.7199 40.6047 91.7883 40.7791 91.8846 40.9264C91.9817 41.0783 92.0972 41.1908 92.2309 41.2639C92.3646 41.337 92.507 41.3584 92.6581 41.3281C92.8402 41.2867 92.9802 41.2014 93.078 41.0723C93.1768 40.9477 93.2467 40.786 93.2877 40.5873C93.3343 40.3923 93.3611 40.1702 93.3682 39.9212C93.3762 39.7006 93.3989 39.4937 93.4363 39.3005C93.4746 39.1118 93.5335 38.9429 93.613 38.7936C93.6971 38.6433 93.8073 38.5165 93.9436 38.4129C94.0854 38.313 94.2593 38.2423 94.4653 38.2009C94.7262 38.1485 94.9688 38.1712 95.1932 38.269C95.4176 38.3667 95.6067 38.5263 95.7607 38.7477C95.9193 38.9682 96.0303 39.2364 96.0938 39.5522C96.1499 39.8314 96.157 40.1037 96.1151 40.3693C96.0741 40.6394 95.9887 40.866 95.8589 41.0492C95.7903 41.1582 95.7148 41.221 95.6325 41.2376C95.5638 41.2514 95.4938 41.2345 95.4223 41.1869C95.3564 41.1431 95.316 41.0845 95.3013 41.0113C95.2912 40.9609 95.3003 40.9115 95.3286 40.8629C95.4 40.7677 95.458 40.6536 95.5027 40.5208C95.5475 40.3881 95.5762 40.2466 95.5889 40.0964C95.6016 39.9463 95.5937 39.8003 95.5652 39.6584C95.5229 39.4479 95.4536 39.2689 95.3573 39.1216C95.2656 38.9734 95.1534 38.865 95.0206 38.7965C94.8933 38.7316 94.7518 38.7147 94.5962 38.746C94.4223 38.781 94.2882 38.8603 94.1941 38.9839C94.1044 39.1067 94.04 39.2601 94.0008 39.4441C93.9662 39.6273 93.9421 39.8273 93.9286 40.0443C93.9187 40.2796 93.896 40.4984 93.8605 40.7008C93.8305 40.9068 93.7766 41.0891 93.6989 41.2475C93.6212 41.406 93.5074 41.5383 93.3573 41.6447C93.2128 41.7547 93.0215 41.8336 92.7835 41.8814C92.5318 41.9319 92.2933 41.9061 92.068 41.8037C91.8427 41.7014 91.648 41.5381 91.4839 41.314C91.3253 41.0935 91.213 40.8304 91.1468 40.5247Z" fill="#D74D3F"/>
<path d="M96.8552 52.7229C96.8521 52.8022 96.8238 52.8688 96.7704 52.9228C96.7215 52.977 96.6575 53.0025 96.5782 52.9994C96.5409 52.998 96.4992 52.987 96.4533 52.9666L92.193 50.9725C92.1334 50.9421 92.0883 50.9007 92.0576 50.8481C92.0315 50.8003 92.0194 50.7485 92.0216 50.6925C92.0283 50.6414 92.0465 50.593 92.0763 50.5475C92.1108 50.5021 92.1564 50.4688 92.2133 50.4477L96.608 48.7961C96.627 48.7875 96.6459 48.7812 96.6648 48.7773C96.6883 48.7735 96.7117 48.7721 96.735 48.773C96.8236 48.7764 96.8901 48.8094 96.9344 48.8718C96.9832 48.9391 97.0064 49.0031 97.0041 49.0637C96.9992 49.1897 96.9303 49.2781 96.7976 49.329L92.7444 50.8467L92.7507 50.6857L96.6903 52.4572C96.8048 52.5177 96.8597 52.6063 96.8552 52.7229Z" fill="#D74D3F"/>
<path d="M93.6147 58.2982C93.2594 58.2436 92.9384 58.1353 92.6516 57.9732C92.3694 57.8118 92.1312 57.6099 91.9369 57.3675C91.7427 57.1252 91.6053 56.8514 91.5247 56.5462C91.444 56.241 91.4295 55.92 91.4813 55.5831C91.5337 55.2417 91.6442 54.9375 91.8127 54.6706C91.9805 54.4082 92.1934 54.1906 92.4513 54.0177C92.7093 53.8448 92.9971 53.7237 93.3147 53.6544C93.637 53.5858 93.9758 53.5788 94.331 53.6333C94.6909 53.6886 95.012 53.7969 95.2942 53.9583C95.581 54.1204 95.8192 54.3223 96.0088 54.564C96.203 54.8063 96.3408 55.0778 96.4222 55.3784C96.5028 55.6836 96.5169 56.0069 96.4645 56.3483C96.4128 56.6852 96.3027 56.9871 96.1341 57.254C95.9656 57.5209 95.7524 57.7409 95.4944 57.9138C95.2411 58.0874 94.9533 58.2085 94.631 58.2771C94.3134 58.3464 93.9746 58.3534 93.6147 58.2982ZM93.7061 57.7029C94.0845 57.761 94.4307 57.7363 94.7448 57.6287C95.0581 57.5256 95.3177 57.3577 95.5235 57.1248C95.7293 56.8919 95.8584 56.6048 95.9108 56.2633C95.9632 55.9219 95.9266 55.6069 95.8009 55.3184C95.6744 55.0345 95.4772 54.7964 95.2092 54.6041C94.9412 54.4118 94.618 54.2866 94.2396 54.2285C93.8659 54.1711 93.52 54.1936 93.2021 54.2959C92.8887 54.3989 92.6291 54.5669 92.4233 54.7997C92.2169 55.0372 92.0874 55.3267 92.035 55.6682C91.9825 56.0096 92.0195 56.3223 92.146 56.6062C92.2724 56.8901 92.4696 57.1282 92.7376 57.3204C93.0095 57.5181 93.3324 57.6456 93.7061 57.7029Z" fill="#D74D3F"/>
<path d="M91.0704 59.466C90.9933 59.4474 90.9345 59.4021 90.8943 59.3299C90.8529 59.2624 90.8416 59.19 90.8601 59.1129C90.8809 59.0266 90.9245 58.9651 90.991 58.9283C91.0575 58.8915 91.1293 58.8824 91.2065 58.901L95.4136 59.9141C95.4953 59.9338 95.5546 59.9769 95.5914 60.0433C95.6327 60.1109 95.6435 60.1856 95.6239 60.2672C95.6053 60.3444 95.5622 60.4036 95.4946 60.445C95.4316 60.4874 95.3592 60.4988 95.2775 60.4791L91.0704 59.466Z" fill="#D74D3F"/>
<path d="M90.4037 60.9369C90.431 60.8525 90.4814 60.7879 90.5549 60.743C90.6269 60.7025 90.7006 60.6945 90.7761 60.719L94.8993 62.0555C94.9748 62.08 95.0291 62.1246 95.0621 62.1892C95.0981 62.2598 95.1039 62.3328 95.0794 62.4083L94.4835 64.2468C94.4029 64.4955 94.2724 64.701 94.0922 64.8634C93.9164 65.0273 93.7099 65.1345 93.4726 65.1852C93.2384 65.2418 92.9925 65.2283 92.7349 65.1448C92.5484 65.0844 92.3845 64.992 92.2432 64.8677C92.1064 64.7448 91.9982 64.6018 91.9186 64.4386C91.8434 64.2768 91.8007 64.1059 91.7903 63.9259L91.9444 63.8139C91.8599 63.9533 91.7516 64.0679 91.6195 64.1576C91.4918 64.2487 91.3447 64.309 91.1781 64.3384C91.016 64.3693 90.841 64.3567 90.653 64.3007C90.4858 64.2563 90.3512 64.2249 90.2492 64.2066C90.1472 64.1882 90.063 64.183 89.9967 64.191C89.9347 64.2003 89.8803 64.2244 89.8334 64.2632C89.7733 64.3124 89.707 64.3351 89.6347 64.3313C89.5608 64.3319 89.5001 64.2999 89.4523 64.2353C89.4209 64.1957 89.4043 64.1486 89.4024 64.094C89.4049 64.0409 89.4163 63.9906 89.4366 63.9432C89.4568 63.8958 89.4838 63.8579 89.5176 63.8296C89.5806 63.7715 89.6606 63.7214 89.7577 63.6792C89.8592 63.6385 89.9904 63.6197 90.1514 63.6228C90.3123 63.6259 90.5193 63.6685 90.7725 63.7505C90.9146 63.7966 91.0394 63.8125 91.1471 63.7983C91.2547 63.7842 91.3497 63.7487 91.4319 63.6919C91.5141 63.6351 91.5814 63.5637 91.6338 63.4777C91.6862 63.3916 91.7283 63.2997 91.76 63.202L92.2415 61.7166L92.3354 61.8354L90.5969 61.2719C90.5214 61.2474 90.4642 61.2043 90.4253 61.1426C90.3864 61.081 90.3792 61.0124 90.4037 60.9369ZM92.7211 61.8721L92.1921 63.504C92.1592 63.6357 92.1647 63.77 92.2087 63.9069C92.2512 64.0483 92.332 64.1775 92.4511 64.2946C92.5731 64.4176 92.7252 64.5086 92.9073 64.5676C93.1426 64.6439 93.3625 64.6318 93.5669 64.5312C93.7698 64.435 93.9079 64.2737 93.9814 64.0472L94.4909 62.4752L94.6002 62.5695L92.5752 61.9131L92.7211 61.8721Z" fill="#D74D3F"/>
<path d="M90.9211 72.3744C90.8848 72.445 90.8332 72.4893 90.7662 72.5074C90.7034 72.5277 90.6387 72.5207 90.5723 72.4866L86.7033 70.5017C86.6244 70.4612 86.5728 70.4032 86.5486 70.3278C86.5285 70.2545 86.5365 70.1826 86.5727 70.112C86.5919 70.0746 86.6173 70.0404 86.649 70.0094C86.6847 69.9806 86.7204 69.9622 86.756 69.9542L91.6503 69.0968L91.6612 69.2598L88.2097 67.489C88.1432 67.4549 88.0988 67.4033 88.0766 67.3341C88.0564 67.2713 88.0644 67.2046 88.1006 67.134C88.1347 67.0675 88.1832 67.0242 88.246 67.0039C88.313 66.9859 88.3797 66.9939 88.4462 67.0279L92.3276 69.0193C92.4023 69.0576 92.4509 69.1114 92.4731 69.1805C92.4932 69.2538 92.4862 69.3237 92.4521 69.3901C92.433 69.4275 92.4055 69.4606 92.3697 69.4895C92.3359 69.5246 92.2992 69.5451 92.2594 69.551L87.4341 70.3965L87.376 70.2644L90.8088 72.0256C90.8753 72.0597 90.9186 72.1082 90.9388 72.171C90.9611 72.2401 90.9552 72.3079 90.9211 72.3744Z" fill="#D74D3F"/>
<path d="M85.3892 76.4321C85.0915 76.2306 84.8478 75.9952 84.658 75.7258C84.4722 75.4591 84.3434 75.1747 84.2717 74.8725C84.2 74.5703 84.1931 74.2641 84.2509 73.9537C84.3087 73.6434 84.4332 73.3471 84.6242 73.0649C84.8178 72.7788 85.0479 72.5512 85.3145 72.3822C85.5785 72.217 85.8641 72.1115 86.1713 72.0658C86.4784 72.02 86.7904 72.0338 87.1071 72.1073C87.4276 72.1833 87.7368 72.3221 88.0344 72.5235C88.336 72.7276 88.5797 72.963 88.7656 73.2297C88.9553 73.4991 89.0841 73.7835 89.1519 74.0831C89.2236 74.3853 89.2319 74.6896 89.1766 74.9961C89.1188 75.3064 88.9931 75.6046 88.7994 75.8907C88.6084 76.1729 88.3796 76.3985 88.113 76.5676C87.8464 76.7366 87.5595 76.844 87.2524 76.8898C86.9491 76.9382 86.6371 76.9244 86.3165 76.8483C85.9998 76.7749 85.6907 76.6361 85.3892 76.4321ZM85.7267 75.9333C86.0437 76.1479 86.3672 76.2738 86.6971 76.3111C87.0244 76.3522 87.3308 76.3116 87.6165 76.1893C87.9022 76.067 88.1419 75.8628 88.3355 75.5767C88.5291 75.2906 88.6309 74.9903 88.6409 74.6758C88.6482 74.3651 88.572 74.0654 88.4122 73.7769C88.2523 73.4883 88.0139 73.2368 87.6969 73.0222C87.3838 72.8103 87.0616 72.6825 86.7305 72.6387C86.4032 72.5976 86.0967 72.6382 85.811 72.7605C85.5227 72.8867 85.2817 73.0928 85.0881 73.3789C84.8945 73.6649 84.794 73.9633 84.7866 74.274C84.7793 74.5847 84.8555 74.8843 85.0154 75.1729C85.1764 75.4679 85.4136 75.7214 85.7267 75.9333Z" fill="#D74D3F"/>
<path d="M81.778 76.8013C82.0025 76.5388 82.2388 76.3416 82.4867 76.2096C82.7347 76.0777 83.0227 75.9923 83.3508 75.9535C83.3969 75.9499 83.4417 75.9514 83.4853 75.9579C83.5293 75.971 83.5691 75.9927 83.6046 76.0231C83.6614 76.0716 83.6943 76.1336 83.7035 76.2091C83.7132 76.2911 83.6923 76.3623 83.6407 76.4226C83.5982 76.4722 83.5408 76.4999 83.4684 76.5056C83.2152 76.5286 82.9849 76.5896 82.7774 76.6886C82.5669 76.7911 82.3751 76.9435 82.2022 77.1457C82.0687 77.3018 81.9736 77.4632 81.9171 77.6298C81.8575 77.8 81.8402 77.9603 81.8652 78.1107C81.8902 78.261 81.9612 78.3863 82.0783 78.4864C82.2232 78.6042 82.3767 78.6618 82.5388 78.6591C82.6978 78.6599 82.8681 78.6152 83.0498 78.5249C83.232 78.4411 83.4233 78.3252 83.6236 78.1771C83.8022 78.0473 83.9791 77.9375 84.1542 77.8477C84.3263 77.7614 84.4956 77.7035 84.6621 77.674C84.8323 77.6474 85.0001 77.6559 85.1657 77.6992C85.3319 77.7492 85.4948 77.8424 85.6544 77.979C85.8567 78.1519 85.9885 78.3569 86.0501 78.5938C86.1116 78.8307 86.1027 79.078 86.0235 79.3359C85.9479 79.5967 85.8053 79.8496 85.596 80.0944C85.4109 80.3108 85.2009 80.4844 84.9661 80.6153C84.7283 80.7498 84.4972 80.8224 84.2729 80.8333C84.1448 80.8466 84.0488 80.826 83.985 80.7713C83.9317 80.7258 83.9018 80.6603 83.8951 80.5747C83.889 80.4957 83.9101 80.4279 83.9587 80.3711C83.9921 80.3321 84.0366 80.3087 84.0923 80.3011C84.2113 80.2984 84.3368 80.2737 84.469 80.227C84.6011 80.1803 84.7301 80.1156 84.8561 80.0329C84.9821 79.9502 85.0921 79.8539 85.1862 79.7439C85.3258 79.5807 85.4238 79.4158 85.4804 79.2491C85.5404 79.0855 85.5565 78.9303 85.5285 78.7835C85.501 78.6432 85.4269 78.5215 85.3063 78.4184C85.1715 78.3031 85.0263 78.2465 84.8709 78.2487C84.719 78.2539 84.5585 78.2979 84.3895 78.3806C84.224 78.4664 84.0517 78.5709 83.8726 78.6941C83.6813 78.8315 83.4951 78.9487 83.3139 79.0456C83.1333 79.1491 82.9566 79.2192 82.784 79.2558C82.6114 79.2925 82.4369 79.2846 82.2606 79.2321C82.0849 79.1862 81.9048 79.0844 81.7203 78.9266C81.5251 78.7597 81.3983 78.556 81.3398 78.3156C81.2814 78.0751 81.2897 77.8212 81.3648 77.5537C81.4405 77.2929 81.5782 77.0421 81.778 76.8013Z" fill="#D74D3F"/>
<path d="M77.073 82.4047C77.0142 82.4579 76.9454 82.4825 76.8664 82.4786C76.7905 82.4781 76.726 82.4486 76.6729 82.3898C76.6197 82.3311 76.5966 82.264 76.6037 82.1884C76.6107 82.1129 76.6436 82.0486 76.7023 81.9954L78.4952 80.3721C78.5539 80.3189 78.6228 80.2943 78.7018 80.2982C78.7773 80.3053 78.8417 80.3382 78.8948 80.3969L81.7989 83.6044C81.852 83.6631 81.8751 83.7302 81.8681 83.8058C81.8641 83.8847 81.8311 83.9524 81.7689 84.0087C81.7102 84.0619 81.6413 84.0865 81.5623 84.0826C81.4865 84.0821 81.422 84.0525 81.3688 83.9938L78.5586 80.8899L78.7467 80.8894L77.073 82.4047Z" fill="#D74D3F"/>
<path d="M76.9418 86.9999L75.8951 82.8248C75.877 82.769 75.877 82.7142 75.895 82.6605C75.9131 82.6069 75.9427 82.5649 75.9837 82.5346C76.0547 82.4822 76.1208 82.4624 76.1819 82.4749C76.2431 82.4875 76.2929 82.5199 76.3315 82.5722C76.3545 82.5956 76.3714 82.6263 76.3822 82.6645L77.5341 87.2636C77.554 87.3297 77.5535 87.3877 77.5327 87.4376C77.5109 87.4941 77.4744 87.5383 77.4231 87.5704C77.3745 87.6062 77.3219 87.6248 77.2653 87.6262C77.2049 87.6304 77.1508 87.6155 77.1028 87.5817L73.0795 85.1521C73.0463 85.1305 73.0187 85.1047 72.9966 85.0749C72.9471 85.0076 72.9295 84.937 72.9441 84.8628C72.9613 84.7924 72.998 84.7366 73.054 84.6953C73.0988 84.6622 73.1495 84.645 73.2061 84.6436C73.2628 84.6422 73.3183 84.6589 73.3728 84.6937L77.0692 86.9146L76.9418 86.9999ZM76.2884 83.9445L76.4202 84.5219L74.7565 85.7489L74.3502 85.3739L76.2884 83.9445Z" fill="#D74D3F"/>
<path d="M74.4083 89.7387C74.3717 89.7595 74.3274 89.7713 74.2753 89.7741C74.2191 89.7792 74.1696 89.7724 74.1268 89.7538L71.1254 88.231L71.3419 88.1159L71.096 91.4784C71.0871 91.5855 71.0389 91.6613 70.9514 91.7057C70.8842 91.7386 70.8135 91.7465 70.7394 91.7296C70.6654 91.7127 70.6075 91.6677 70.566 91.5947L68.4224 87.8274C68.3832 87.7585 68.374 87.6858 68.395 87.6094C68.416 87.533 68.463 87.474 68.536 87.4325C68.6091 87.3909 68.6838 87.3806 68.7602 87.4016C68.8366 87.4226 68.8944 87.4676 68.9336 87.5365L70.814 90.8413L70.6446 90.8974L70.8376 87.8953C70.8458 87.853 70.8624 87.8113 70.8874 87.7703C70.9083 87.7315 70.937 87.7018 70.9735 87.681C71.01 87.6602 71.0523 87.6496 71.1004 87.6491C71.1485 87.6486 71.1927 87.6556 71.2332 87.6702L73.8945 89.0482L73.8567 89.2791L71.9036 85.8466C71.8644 85.7776 71.8532 85.7061 71.8701 85.632C71.8871 85.5579 71.93 85.5013 71.999 85.462C72.068 85.4228 72.1386 85.4148 72.2109 85.4381C72.2792 85.4637 72.333 85.511 72.3722 85.58L74.5158 89.3472C74.5527 89.4121 74.5628 89.4816 74.5458 89.5557C74.5271 89.6362 74.4813 89.6972 74.4083 89.7387Z" fill="#D74D3F"/>
<path d="M67.3309 93.3341C67.0945 93.4344 66.8572 93.4667 66.6189 93.431C66.3806 93.3953 66.1648 93.2993 65.9716 93.1429C65.7741 92.9884 65.6207 92.7823 65.5112 92.5245C65.4035 92.271 65.3617 92.0174 65.3859 91.7637C65.4057 91.5118 65.4846 91.2856 65.6226 91.085C65.7605 90.8844 65.9477 90.7339 66.184 90.6335L67.4924 90.0779L67.4801 90.1744L66.7903 88.5502C66.7593 88.4772 66.7565 88.4048 66.7819 88.3332C66.8072 88.2616 66.8564 88.2102 66.9295 88.1792C67.0068 88.1464 67.0801 88.1457 67.1492 88.1772C67.2141 88.2105 67.262 88.2637 67.2931 88.3367L68.9873 92.3263C69.0184 92.3993 69.0203 92.4695 68.9931 92.5368C68.9634 92.6103 68.9121 92.6625 68.839 92.6936L67.3309 93.3341ZM66.3948 91.1298C66.253 91.19 66.1448 91.2816 66.0702 91.4046C65.9956 91.5275 65.9544 91.6693 65.9465 91.8299C65.9386 91.9904 65.9675 92.1481 66.0332 92.3028C66.1026 92.466 66.1959 92.5963 66.3133 92.6935C66.4307 92.7908 66.5586 92.8531 66.697 92.8805C66.8373 92.9122 66.9783 92.898 67.1201 92.8378L68.4285 92.2821L68.4135 92.3722L67.6306 90.5289L67.7031 90.5742L66.3948 91.1298Z" fill="#D74D3F"/>
<path d="M64.5077 94.4096L62.1306 95.1605C62.055 95.1844 61.9827 95.1803 61.9138 95.1482C61.8449 95.1161 61.7985 95.0622 61.7746 94.9866C61.7507 94.9109 61.7577 94.8401 61.7957 94.7743C61.835 94.7129 61.8925 94.6703 61.9682 94.6463L64.1182 93.9672L64.094 94.0997L63.5604 92.4104L63.6504 92.4628L61.7941 93.0491C61.7185 93.073 61.6462 93.0689 61.5773 93.0368C61.5084 93.0047 61.462 92.9508 61.4381 92.8752C61.4142 92.7995 61.4212 92.7287 61.4592 92.6629C61.4985 92.6015 61.5561 92.5589 61.6317 92.535L63.4679 91.955L63.4402 92.0298L62.8939 90.3004L62.9487 90.3345L60.8187 91.0073C60.7431 91.0312 60.6701 91.0249 60.5998 90.9884C60.5295 90.9518 60.4838 90.9002 60.4627 90.8334C60.4388 90.7577 60.4459 90.687 60.4838 90.6211C60.5218 90.5553 60.5786 90.5104 60.6542 90.4865L63.0313 89.7357C63.107 89.7118 63.1799 89.7181 63.2502 89.7546C63.3161 89.7926 63.3609 89.8494 63.3848 89.9251L64.6904 94.0582C64.7143 94.1339 64.7095 94.2039 64.676 94.2683C64.6394 94.3386 64.5833 94.3857 64.5077 94.4096Z" fill="#D74D3F"/>
<path d="M58.0704 91.0278C58.4081 90.955 58.7155 90.9412 58.9927 90.9865C59.2699 91.0318 59.5508 91.1384 59.8353 91.3062C59.8741 91.3313 59.9089 91.3596 59.9396 91.3912C59.9667 91.4283 59.9852 91.4697 59.995 91.5154C60.0108 91.5884 59.9994 91.6577 59.961 91.7232C59.9191 91.7944 59.8593 91.8383 59.7817 91.855C59.7178 91.8688 59.6554 91.856 59.5944 91.8167C59.379 91.6816 59.1588 91.5906 58.9338 91.5436C58.7042 91.4976 58.4593 91.5027 58.1992 91.5588C57.9985 91.6021 57.8251 91.6729 57.6792 91.7712C57.5287 91.8706 57.4178 91.9876 57.3466 92.1223C57.2753 92.2571 57.256 92.3997 57.2884 92.5503C57.3324 92.7319 57.4196 92.8707 57.5501 92.9667C57.6761 93.0637 57.8387 93.1313 58.038 93.1695C58.2337 93.2132 58.4561 93.2369 58.7052 93.2405C58.9259 93.2454 59.1331 93.2652 59.3268 93.2998C59.516 93.3355 59.6858 93.392 59.8362 93.4694C59.9876 93.5513 60.116 93.6597 60.2215 93.7946C60.3234 93.935 60.3965 94.1078 60.4408 94.3132C60.4969 94.5733 60.4776 94.8162 60.3831 95.0419C60.2885 95.2677 60.1316 95.4591 59.9124 95.6162C59.6941 95.7779 59.4276 95.8927 59.1127 95.9606C58.8344 96.0206 58.5621 96.0316 58.296 95.9935C58.0254 95.9563 57.7975 95.8741 57.6125 95.7469C57.5025 95.6799 57.4387 95.6053 57.421 95.5232C57.4062 95.4547 57.4221 95.3844 57.4686 95.3123C57.5116 95.2457 57.5695 95.2046 57.6426 95.1888C57.6928 95.178 57.7423 95.1864 57.7913 95.2141C57.8875 95.2841 58.0024 95.3405 58.1358 95.3833C58.2692 95.4262 58.4111 95.4529 58.5614 95.4635C58.7117 95.474 58.8576 95.4641 58.999 95.4335C59.209 95.3883 59.3869 95.3165 59.5328 95.2182C59.6797 95.1244 59.7865 95.0106 59.8532 94.8769C59.9163 94.7486 59.9311 94.607 59.8976 94.4518C59.8602 94.2784 59.779 94.1455 59.654 94.053C59.53 93.9652 59.3757 93.9029 59.1911 93.8663C59.0075 93.8343 58.8072 93.8131 58.59 93.8026C58.3546 93.796 58.1355 93.7764 57.9326 93.7438C57.7262 93.7167 57.5432 93.6654 57.3837 93.59C57.2242 93.5145 57.0902 93.4025 56.9817 93.254C56.8697 93.111 56.7881 92.9209 56.737 92.6836C56.6828 92.4326 56.7053 92.1938 56.8045 91.967C56.9036 91.7403 57.0641 91.5433 57.2859 91.3761C57.5042 91.2144 57.7656 91.0983 58.0704 91.0278Z" fill="#D74D3F"/>
<path d="M45.9312 96.9055C45.8519 96.9035 45.7848 96.8761 45.7301 96.8233C45.6753 96.7752 45.6489 96.7115 45.6509 96.6322C45.6519 96.5949 45.6623 96.5531 45.6821 96.5069L47.6188 92.2201C47.6483 92.1602 47.6892 92.1145 47.7413 92.0831C47.7887 92.0563 47.8404 92.0436 47.8964 92.045C47.9476 92.051 47.9962 92.0686 48.0422 92.0978C48.088 92.1316 48.1219 92.1768 48.1438 92.2334L49.8543 96.6055C49.8632 96.6244 49.8697 96.6433 49.8739 96.662C49.878 96.6855 49.8797 96.7089 49.8791 96.7322C49.8769 96.8209 49.8448 96.8878 49.783 96.9329C49.7164 96.9826 49.6527 97.0067 49.592 97.0051C49.466 97.0019 49.3767 96.9343 49.324 96.8022L47.752 92.7699L47.913 92.7739L46.1946 96.737C46.1357 96.8523 46.0479 96.9084 45.9312 96.9055Z" fill="#D74D3F"/>
<path d="M40.3167 93.7327C40.367 93.3768 40.4715 93.0545 40.6302 92.7659C40.7882 92.4818 40.9872 92.2412 41.2272 92.0442C41.4672 91.8472 41.7393 91.7065 42.0434 91.6222C42.3476 91.538 42.6684 91.5197 43.0058 91.5674C43.3478 91.6158 43.6532 91.7226 43.9221 91.8879C44.1864 92.0526 44.4065 92.2628 44.5824 92.5187C44.7583 92.7745 44.8828 93.0608 44.9559 93.3776C45.0283 93.6989 45.0393 94.0375 44.989 94.3934C44.938 94.7539 44.8336 95.0761 44.6755 95.3602C44.5169 95.6489 44.3179 95.8894 44.0785 96.0819C43.8385 96.2789 43.5688 96.4199 43.2692 96.5048C42.965 96.5891 42.6419 96.607 42.2999 96.5586C41.9626 96.5109 41.6594 96.4044 41.3906 96.2391C41.1217 96.0738 40.8993 95.8632 40.7233 95.6074C40.5467 95.3561 40.4222 95.0698 40.3498 94.7485C40.2767 94.4317 40.2657 94.0931 40.3167 93.7327ZM40.9129 93.817C40.8593 94.1959 40.8881 94.5418 40.9995 94.8545C41.1062 95.1666 41.2772 95.4241 41.5125 95.6271C41.7477 95.83 42.0364 95.9557 42.3784 96.0041C42.7204 96.0524 43.0348 96.012 43.3218 95.8829C43.6041 95.7531 43.8398 95.5531 44.0289 95.2829C44.2179 95.0127 44.3393 94.6881 44.3929 94.3091C44.4458 93.9347 44.4192 93.5892 44.3132 93.2725C44.2064 92.9605 44.0355 92.703 43.8002 92.5C43.5603 92.2964 43.2693 92.1704 42.9273 92.122C42.5854 92.0736 42.2732 92.1143 41.9909 92.2441C41.7085 92.3739 41.4728 92.5739 41.2838 92.8441C41.0894 93.1184 40.9658 93.4426 40.9129 93.817Z" fill="#D74D3F"/>
<path d="M39.1081 91.2151C39.1256 91.1377 39.1701 91.0784 39.2417 91.0371C39.3087 90.9948 39.3809 90.9825 39.4583 91C39.5448 91.0196 39.6069 91.0623 39.6446 91.1283C39.6824 91.1943 39.6925 91.266 39.6749 91.3434L38.7199 95.5641C38.7014 95.646 38.6591 95.7059 38.5931 95.7436C38.5261 95.7858 38.4517 95.7977 38.3697 95.7792C38.2923 95.7617 38.2325 95.7194 38.1902 95.6524C38.1469 95.59 38.1345 95.5177 38.153 95.4358L39.1081 91.2151Z" fill="#D74D3F"/>
<path d="M37.6373 90.5676C37.722 90.5937 37.7873 90.6432 37.8332 90.7161C37.8747 90.7875 37.8837 90.8611 37.8602 90.937L36.5807 95.0782C36.5573 95.154 36.5134 95.2089 36.4492 95.2428C36.3792 95.2798 36.3062 95.2865 36.2304 95.2631L34.3839 94.6926C34.1341 94.6154 33.9268 94.4878 33.7619 94.3099C33.5957 94.1363 33.4856 93.9313 33.4316 93.6948C33.3718 93.4613 33.3819 93.2153 33.4618 92.9566C33.5197 92.7692 33.6098 92.6041 33.7322 92.4611C33.8532 92.3226 33.9947 92.2124 34.1568 92.1306C34.3175 92.0532 34.4878 92.0081 34.6676 91.9953L34.7818 92.1478C34.6411 92.0653 34.5251 91.9586 34.4336 91.8277C34.3407 91.7013 34.2784 91.555 34.2467 91.3888C34.2136 91.2271 34.2238 91.0519 34.2772 90.8632C34.3193 90.6955 34.3488 90.5604 34.3657 90.4582C34.3826 90.3559 34.3867 90.2717 34.3778 90.2054C34.3676 90.1436 34.3428 90.0896 34.3034 90.0432C34.2534 89.9837 34.2297 89.9178 34.2326 89.8454C34.2309 89.7716 34.2621 89.7104 34.326 89.6617C34.3651 89.6298 34.412 89.6126 34.4666 89.6099C34.5198 89.6117 34.5702 89.6224 34.6179 89.642C34.6656 89.6616 34.7038 89.6881 34.7326 89.7214C34.7916 89.7836 34.8428 89.8629 34.8863 89.9594C34.9284 90.0604 34.949 90.1913 34.9481 90.3523C34.9472 90.5133 34.9075 90.7209 34.829 90.9751C34.7849 91.1178 34.7706 91.2429 34.7863 91.3503C34.802 91.4578 34.8387 91.5522 34.8967 91.6336C34.9546 91.715 35.0269 91.7814 35.1137 91.8326C35.2004 91.8838 35.2929 91.9246 35.391 91.9549L36.8829 92.4159L36.7654 92.5115L37.305 90.7654C37.3284 90.6896 37.3707 90.6318 37.4318 90.592C37.4929 90.5523 37.5614 90.5441 37.6373 90.5676ZM36.7341 92.8976L35.095 92.3912C34.9629 92.3601 34.8287 92.3675 34.6924 92.4133C34.5516 92.4578 34.4235 92.5404 34.308 92.661C34.1867 92.7848 34.0978 92.9381 34.0413 93.121C33.9683 93.3573 33.9835 93.577 34.0869 93.78C34.1859 93.9816 34.3491 94.1175 34.5765 94.1878L36.1554 94.6756L36.0626 94.7862L36.691 92.7524L36.7341 92.8976Z" fill="#D74D3F"/>
<path d="M26.1994 91.2918C26.128 91.2569 26.0826 91.206 26.0632 91.1393C26.0417 91.0767 26.0474 91.0118 26.0803 90.9446L27.9936 87.031C28.0326 86.9512 28.0896 86.8984 28.1647 86.8727C28.2377 86.8511 28.3099 86.8578 28.3813 86.8927C28.4192 86.9112 28.4539 86.936 28.4855 86.967C28.5151 87.0023 28.5343 87.0377 28.543 87.0732L29.4964 91.9588L29.3334 91.9728L31.0402 88.4815C31.0731 88.4143 31.124 88.3689 31.1928 88.3452C31.2553 88.3238 31.3223 88.3305 31.3937 88.3654C31.4609 88.3983 31.5053 88.446 31.5268 88.5085C31.5462 88.5753 31.5395 88.6423 31.5066 88.7095L29.5871 92.6357C29.5502 92.7113 29.4973 92.7609 29.4285 92.7845C29.3555 92.8061 29.2853 92.8005 29.2181 92.7676C29.1803 92.7491 29.1466 92.7222 29.117 92.6869C29.0812 92.6538 29.0599 92.6174 29.0533 92.5777L28.113 87.761L28.2442 87.7002L26.5466 91.1726C26.5137 91.2398 26.466 91.2842 26.4035 91.3057C26.3347 91.3293 26.2667 91.3247 26.1994 91.2918Z" fill="#D74D3F"/>
<path d="M22.0327 85.7975C22.2304 85.4956 22.463 85.2473 22.7305 85.0527C22.9954 84.862 23.279 84.7284 23.5813 84.6518C23.8836 84.5752 24.1909 84.5635 24.5033 84.6168C24.8158 84.6701 25.1151 84.7905 25.4014 84.9779C25.6916 85.1679 25.9236 85.3955 26.0973 85.6605C26.2672 85.923 26.3775 86.2081 26.4281 86.5158C26.4788 86.8235 26.4697 87.1368 26.4008 87.4559C26.3294 87.7789 26.1948 88.0914 25.9971 88.3933C25.7969 88.6992 25.5643 88.9474 25.2994 89.1381C25.0319 89.3327 24.7483 89.4664 24.4486 89.5391C24.1463 89.6157 23.8409 89.6286 23.5324 89.5779C23.22 89.5246 22.9187 89.4029 22.6285 89.2129C22.3422 89.0255 22.1122 88.7992 21.9384 88.5342C21.7646 88.2691 21.6524 87.9827 21.6017 87.6751C21.5485 87.3713 21.5576 87.0579 21.6291 86.7349C21.6979 86.4159 21.8325 86.1034 22.0327 85.7975ZM22.5386 86.1288C22.328 86.4503 22.2066 86.777 22.1743 87.1087C22.138 87.4379 22.1834 87.745 22.3106 88.0299C22.4377 88.3149 22.6464 88.5524 22.9366 88.7424C23.2268 88.9324 23.5298 89.0299 23.8458 89.0351C24.1578 89.0377 24.4574 88.9566 24.7446 88.7917C25.0319 88.6268 25.2808 88.3836 25.4913 88.0621C25.6993 87.7445 25.8227 87.4191 25.8615 87.086C25.8978 86.7568 25.8523 86.4497 25.7252 86.1647C25.5941 85.8772 25.3835 85.6385 25.0933 85.4485C24.8031 85.2585 24.502 85.1622 24.19 85.1596C23.878 85.157 23.5783 85.2381 23.2911 85.403C22.9974 85.5692 22.7465 85.8111 22.5386 86.1288Z" fill="#D74D3F"/>
<path d="M21.6502 82.1712C21.9161 82.3923 22.1169 82.626 22.2525 82.8724C22.3881 83.1188 22.4776 83.4059 22.5211 83.7338C22.5253 83.7799 22.5245 83.8248 22.5186 83.8685C22.5061 83.9128 22.4849 83.9529 22.455 83.9889C22.4072 84.0464 22.3456 84.0803 22.2702 84.0905C22.1882 84.1014 22.1167 84.0815 22.0556 84.0307C22.0053 83.9888 21.9768 83.9317 21.9701 83.8593C21.9434 83.6062 21.8791 83.3765 21.7771 83.1702C21.6715 82.9608 21.5163 82.771 21.3114 82.6007C21.1532 82.4693 20.9903 82.3764 20.8227 82.3222C20.6515 82.265 20.4908 82.2499 20.3406 82.277C20.1904 82.3041 20.066 82.377 19.9674 82.4956C19.8515 82.6424 19.7961 82.7969 19.8011 82.959C19.8025 83.1182 19.8497 83.2881 19.9427 83.4687C20.0291 83.65 20.1478 83.8398 20.2989 84.0383C20.4313 84.2153 20.5438 84.3908 20.6362 84.5648C20.7249 84.7358 20.7853 84.9045 20.8172 85.0709C20.8462 85.2408 20.8401 85.409 20.799 85.5754C20.7514 85.7424 20.6603 85.9068 20.5259 86.0685C20.3556 86.2734 20.1523 86.4083 19.916 86.4733C19.6797 86.5382 19.4319 86.5328 19.1727 86.4572C18.9105 86.3851 18.6554 86.246 18.4073 86.0398C18.1881 85.8576 18.0113 85.6499 17.8769 85.4166C17.739 85.1804 17.663 84.9501 17.6489 84.7257C17.6338 84.5977 17.6531 84.5013 17.7069 84.4366C17.7517 84.3827 17.8169 84.3518 17.9025 84.3439C17.9815 84.3366 18.0497 84.3569 18.1072 84.4047C18.1468 84.4375 18.1707 84.4818 18.1792 84.5374C18.1835 84.6565 18.21 84.7818 18.2587 84.9134C18.3073 85.045 18.3739 85.1733 18.4584 85.2983C18.543 85.4233 18.641 85.5321 18.7524 85.6247C18.9178 85.7621 19.0842 85.8579 19.2519 85.9122C19.4165 85.97 19.5721 85.9839 19.7187 85.9538C19.8587 85.9243 19.9795 85.8484 20.0811 85.7262C20.1946 85.5896 20.2492 85.4435 20.2448 85.2879C20.2374 85.1359 20.1911 84.9759 20.1059 84.8079C20.0178 84.6434 19.9107 84.4724 19.7848 84.2948C19.6445 84.1053 19.5246 83.9205 19.425 83.7405C19.3189 83.5611 19.2463 83.3852 19.2071 83.2129C19.168 83.0406 19.1735 82.8659 19.2235 82.6887C19.267 82.5121 19.3664 82.3303 19.5217 82.1434C19.6861 81.9457 19.8882 81.8159 20.1281 81.7539C20.368 81.692 20.6223 81.6968 20.8911 81.7682C21.1533 81.8403 21.4063 81.9746 21.6502 82.1712Z" fill="#D74D3F"/>
<path d="M15.9877 77.5341C15.9338 77.4758 15.9085 77.4071 15.9116 77.3279C15.9114 77.2519 15.9404 77.187 15.9987 77.1332C16.057 77.0793 16.124 77.0556 16.1997 77.0619C16.2755 77.0682 16.3402 77.1005 16.3941 77.1588L18.0377 78.9388C18.0916 78.9971 18.1169 79.0658 18.1138 79.145C18.1074 79.2207 18.0751 79.2855 18.0168 79.3393L14.8324 82.2799C14.7741 82.3337 14.7071 82.3575 14.6314 82.3512C14.5522 82.348 14.4841 82.3156 14.4271 82.2538C14.3733 82.1955 14.348 82.1268 14.3511 82.0476C14.3508 81.9716 14.3798 81.9067 14.4382 81.8529L17.5197 79.0074L17.5221 79.1958L15.9877 77.5341Z" fill="#D74D3F"/>
<path d="M11.3301 77.4747L15.5216 76.3879C15.5776 76.3693 15.6327 76.3688 15.6869 76.3865C15.741 76.4043 15.7835 76.4337 15.8143 76.4748C15.8675 76.5457 15.8881 76.612 15.8759 76.6736C15.8638 76.7353 15.8316 76.7857 15.7793 76.8249C15.756 76.8482 15.7252 76.8655 15.6869 76.8767L11.0696 78.0727C11.0033 78.0932 10.9449 78.0932 10.8945 78.0727C10.8376 78.0512 10.7928 78.0148 10.7601 77.9635C10.7237 77.9149 10.7045 77.8622 10.7027 77.8052C10.698 77.7445 10.7125 77.6899 10.7461 77.6414L13.1577 73.5744C13.1791 73.5408 13.2048 73.5128 13.2347 73.4904C13.3019 73.44 13.3729 73.4218 13.4476 73.4358C13.5185 73.4526 13.575 73.489 13.617 73.545C13.6506 73.5898 13.6684 73.6407 13.6702 73.6977C13.6721 73.7546 13.6558 73.8106 13.6212 73.8657L11.4169 77.6021L11.3301 77.4747ZM14.3985 76.7927L13.8187 76.9299L12.5709 75.2662L12.9448 74.8544L14.3985 76.7927Z" fill="#D74D3F"/>
<path d="M8.61924 74.9753C8.59796 74.9391 8.58556 74.895 8.58205 74.8429C8.57616 74.7868 8.58223 74.7372 8.60024 74.6942L10.0815 71.672L10.1996 71.8869L6.83406 71.6874C6.72685 71.68 6.65043 71.6328 6.6048 71.5459C6.571 71.4792 6.56205 71.4086 6.57795 71.3343C6.59385 71.26 6.63803 71.2016 6.71049 71.159L10.4478 68.9637C10.5163 68.9235 10.5888 68.9134 10.6655 68.9333C10.7422 68.9532 10.8018 68.9994 10.8443 69.0719C10.8869 69.1443 10.8982 69.2189 10.8783 69.2956C10.8583 69.3722 10.8142 69.4307 10.7457 69.4709L7.46726 71.3966L7.40879 71.228L10.4133 71.3797C10.4557 71.3873 10.4976 71.4033 10.539 71.4277C10.578 71.448 10.6082 71.4763 10.6294 71.5126C10.6507 71.5488 10.6619 71.5909 10.6631 71.639C10.6642 71.687 10.6578 71.7314 10.6438 71.7721L9.30264 74.4521L9.07119 74.4175L12.4765 72.4173C12.5449 72.3771 12.6162 72.3649 12.6906 72.3808C12.7649 72.3967 12.8221 72.4389 12.8623 72.5073C12.9025 72.5758 12.9115 72.6463 12.8892 72.7189C12.8645 72.7876 12.818 72.842 12.7495 72.8822L9.0122 75.0775C8.94779 75.1153 8.87844 75.1263 8.80413 75.1104C8.72343 75.0928 8.6618 75.0478 8.61924 74.9753Z" fill="#D74D3F"/>
<path d="M4.92786 67.9499C4.82421 67.715 4.78858 67.4781 4.82097 67.2393C4.85336 67.0005 4.94637 66.7834 5.09999 66.5881C5.25172 66.3885 5.45571 66.2321 5.71196 66.1191C5.96394 66.0079 6.21693 65.9626 6.47094 65.9831C6.72305 65.9995 6.95036 66.0752 7.15287 66.2103C7.35537 66.3455 7.50845 66.5305 7.6121 66.7654L8.18595 68.0659L8.08929 68.055L9.70368 67.3426C9.77628 67.3106 9.84858 67.3067 9.92056 67.3311C9.99254 67.3555 10.0445 67.4039 10.0766 67.4766C10.1105 67.5534 10.1122 67.6267 10.0817 67.6963C10.0493 67.7616 9.99678 67.8103 9.92417 67.8423L5.95867 69.5921C5.88607 69.6242 5.81591 69.6271 5.7482 69.6008C5.67433 69.5722 5.62138 69.5215 5.58934 69.4489L4.92786 67.9499ZM7.11882 66.9831C7.05663 66.8421 6.96354 66.7353 6.83955 66.6624C6.71556 66.5896 6.57323 66.5503 6.41256 66.5447C6.2519 66.539 6.09469 66.5701 5.94094 66.638C5.77864 66.7096 5.6497 66.8047 5.55412 66.9235C5.45853 67.0422 5.39799 67.1709 5.3725 67.3098C5.34274 67.4504 5.35895 67.5913 5.42115 67.7322L5.995 69.0327L5.90474 69.0189L7.73694 68.2105L7.69267 68.2836L7.11882 66.9831Z" fill="#D74D3F"/>
<path d="M3.81089 65.1388L3.02693 62.7725C3.00197 62.6971 3.00505 62.6248 3.03618 62.5555C3.06731 62.4862 3.12054 62.439 3.19587 62.4141C3.2712 62.3891 3.34205 62.3951 3.40841 62.4322C3.47034 62.4707 3.51379 62.5276 3.53875 62.6029L4.24784 64.7432L4.11502 64.7208L5.79671 64.1637L5.74561 64.2544L5.13341 62.4065C5.10846 62.3312 5.11154 62.2589 5.14267 62.1895C5.1738 62.1202 5.22703 62.0731 5.30236 62.0481C5.37769 62.0232 5.44854 62.0292 5.5149 62.0662C5.57683 62.1047 5.62027 62.1616 5.64523 62.237L6.25082 64.0649L6.17558 64.0382L7.89715 63.4678L7.86384 63.5231L7.16135 61.4027C7.1364 61.3274 7.1417 61.2543 7.17726 61.1835C7.21281 61.1128 7.26383 61.0663 7.3303 61.0443C7.40563 61.0194 7.47648 61.0254 7.54284 61.0624C7.6092 61.0995 7.65486 61.1556 7.67982 61.231L8.46378 63.5973C8.48874 63.6726 8.48344 63.7457 8.44788 63.8165C8.41085 63.8828 8.35467 63.9285 8.27934 63.9535L4.16486 65.3166C4.08952 65.3415 4.01941 65.3377 3.95452 65.3051C3.88372 65.2696 3.83585 65.2141 3.81089 65.1388Z" fill="#D74D3F"/>
<path d="M7.10021 58.6454C7.17762 58.982 7.19558 59.2892 7.15407 59.567C7.11257 59.8448 7.00983 60.1271 6.84585 60.4139C6.82133 60.453 6.79349 60.4882 6.76232 60.5193C6.72556 60.5469 6.68443 60.566 6.63894 60.5764C6.56615 60.5932 6.4967 60.5828 6.4306 60.5453C6.3589 60.5043 6.31416 60.4451 6.29638 60.3678C6.28173 60.3041 6.29368 60.2415 6.33222 60.1799C6.46429 59.9627 6.55229 59.7413 6.5962 59.5157C6.63907 59.2855 6.63069 59.0407 6.57106 58.7814C6.52503 58.5812 6.45186 58.4088 6.35155 58.2643C6.2502 58.1151 6.13167 58.0059 5.99596 57.9365C5.86026 57.8671 5.71734 57.8497 5.56721 57.8842C5.38628 57.9306 5.2487 58.0197 5.15447 58.1515C5.0592 58.2788 4.99382 58.4423 4.95832 58.6421C4.91723 58.8384 4.89659 59.0611 4.8964 59.3102C4.89448 59.531 4.87752 59.7384 4.84553 59.9326C4.81249 60.1222 4.7583 60.2928 4.68295 60.4442C4.60306 60.5967 4.49641 60.7266 4.36302 60.8339C4.22403 60.9377 4.05217 61.0132 3.84745 61.0602C3.58813 61.1199 3.34496 61.1039 3.11795 61.0124C2.89094 60.9209 2.69739 60.7667 2.53731 60.5496C2.37268 60.3336 2.25427 60.0686 2.18209 59.7547C2.11827 59.4772 2.10361 59.2051 2.13811 58.9386C2.17156 58.6674 2.25064 58.4385 2.37535 58.2517C2.44087 58.1409 2.51457 58.076 2.59646 58.0572C2.6647 58.0415 2.73519 58.0564 2.80794 58.1019C2.87508 58.144 2.91703 58.2014 2.93377 58.2742C2.94527 58.3242 2.93754 58.3739 2.91056 58.4232C2.8419 58.5204 2.78705 58.636 2.74601 58.77C2.70497 58.904 2.68019 59.0462 2.67168 59.1967C2.66316 59.3471 2.67512 59.4929 2.70755 59.6339C2.75567 59.8432 2.82989 60.0201 2.93019 60.1647C3.02595 60.3103 3.14116 60.4155 3.27582 60.4804C3.40488 60.5417 3.54676 60.5546 3.70144 60.519C3.87432 60.4793 4.00612 60.3963 4.09684 60.27C4.18301 60.1448 4.24314 59.9897 4.27722 59.8046C4.30676 59.6206 4.32528 59.42 4.3328 59.2027C4.33613 58.9672 4.35275 58.7478 4.38265 58.5446C4.40695 58.3378 4.45573 58.1541 4.52898 57.9936C4.60224 57.8331 4.71238 57.6976 4.85943 57.5871C5.00087 57.4731 5.18988 57.389 5.42645 57.3346C5.67667 57.277 5.91581 57.2963 6.14387 57.3923C6.37192 57.4884 6.57107 57.6462 6.7413 57.8657C6.90593 58.0817 7.02556 58.3416 7.10021 58.6454Z" fill="#D74D3F"/>
<path d="M1.0678 46.5888C1.06909 46.5094 1.09586 46.4422 1.14811 46.387C1.1957 46.3318 1.25916 46.3048 1.33851 46.3061C1.37585 46.3067 1.41771 46.3167 1.46408 46.3361L5.76826 48.2338C5.82848 48.2628 5.87451 48.3032 5.90635 48.3551C5.9336 48.4022 5.94677 48.4538 5.94586 48.5098C5.94036 48.5611 5.92323 48.6098 5.89446 48.6561C5.86103 48.7022 5.81612 48.7365 5.75973 48.7589L1.40335 50.509C1.38452 50.5181 1.36574 50.5248 1.34699 50.5291C1.32358 50.5334 1.3002 50.5354 1.27687 50.535C1.18818 50.5336 1.121 50.5021 1.0753 50.4407C1.02502 50.3745 1.00037 50.3111 1.00136 50.2504C1.0034 50.1244 1.07023 50.0344 1.20183 49.9805L5.21976 48.372L5.21715 48.533L1.23863 46.8507C1.12285 46.7928 1.06591 46.7055 1.0678 46.5888Z" fill="#D74D3F"/>
<path d="M4.14267 40.9415C4.49933 40.9862 4.82324 41.0857 5.11442 41.2398C5.40097 41.3934 5.64465 41.5886 5.84547 41.8255C6.04628 42.0624 6.19121 42.3323 6.28024 42.6352C6.36928 42.938 6.39259 43.2585 6.35018 43.5966C6.30718 43.9394 6.20514 44.2465 6.04405 44.518C5.88355 44.7849 5.67674 45.0083 5.42363 45.1882C5.17052 45.3682 4.88617 45.4972 4.57057 45.5752C4.25034 45.6527 3.9119 45.669 3.55524 45.6243C3.19396 45.579 2.87004 45.4795 2.58349 45.326C2.29232 45.1718 2.04863 44.9766 1.85245 44.7403C1.65163 44.5034 1.50642 44.2358 1.4168 43.9376C1.32776 43.6347 1.30474 43.3119 1.34774 42.9691C1.39016 42.631 1.49191 42.3262 1.65299 42.0547C1.81408 41.7832 2.02117 41.5575 2.27428 41.3775C2.52276 41.197 2.80711 41.068 3.12734 40.9905C3.44294 40.9125 3.78139 40.8961 4.14267 40.9415ZM4.06772 41.539C3.6879 41.4913 3.34251 41.5256 3.03152 41.6419C2.72112 41.7535 2.46628 41.9285 2.26699 42.167C2.0677 42.4055 1.94656 42.6961 1.90357 43.0388C1.86057 43.3816 1.90589 43.6955 2.03951 43.9804C2.17372 44.2607 2.37744 44.4933 2.65065 44.6781C2.92387 44.8629 3.25038 44.9791 3.6302 45.0268C4.00538 45.0739 4.35049 45.0419 4.66552 44.9308C4.97592 44.8192 5.23077 44.6442 5.43005 44.4057C5.62992 44.1626 5.75135 43.8697 5.79435 43.5269C5.83735 43.1842 5.79174 42.8726 5.65753 42.5923C5.52332 42.312 5.31961 42.0795 5.04639 41.8946C4.76913 41.7046 4.4429 41.586 4.06772 41.539Z" fill="#D74D3F"/>
<path d="M6.6563 39.7023C6.73394 39.7187 6.79388 39.7624 6.83612 39.8334C6.87932 39.8998 6.89271 39.9718 6.87628 40.0495C6.85791 40.1362 6.81601 40.1989 6.75057 40.2376C6.68514 40.2762 6.6136 40.2873 6.53596 40.2709L2.30233 39.3749C2.22013 39.3575 2.1597 39.316 2.12107 39.2506C2.07786 39.1842 2.06496 39.1099 2.08236 39.0277C2.09879 38.95 2.14021 38.8896 2.20661 38.8464C2.26845 38.8022 2.34047 38.7889 2.42267 38.8063L6.6563 39.7023Z" fill="#D74D3F"/>
<path d="M7.27875 38.2189C7.25391 38.304 7.20546 38.3701 7.13338 38.4172C7.06261 38.4598 6.98913 38.4699 6.91295 38.4477L2.75191 37.2341C2.67573 37.2119 2.62018 37.1689 2.58526 37.1053C2.54717 37.0358 2.53923 36.963 2.56145 36.8868L3.10259 35.0315C3.17578 34.7805 3.30005 34.5712 3.47539 34.4035C3.64624 34.2345 3.8495 34.1212 4.08515 34.0635C4.31762 34 4.56382 34.0061 4.82375 34.0819C5.01197 34.1368 5.17853 34.2243 5.32343 34.3444C5.46385 34.4632 5.57626 34.6029 5.66066 34.7637C5.74058 34.9232 5.78838 35.0927 5.80407 35.2723L5.65338 35.3889C5.73367 35.2469 5.83852 35.1292 5.96792 35.0357C6.09284 34.9408 6.23811 34.8762 6.40374 34.8418C6.56489 34.8062 6.74022 34.8135 6.92975 34.864C7.09818 34.9034 7.23365 34.9307 7.33616 34.946C7.43868 34.9613 7.52299 34.964 7.58909 34.9542C7.65071 34.9429 7.70439 34.9173 7.75014 34.8771C7.80877 34.8262 7.87431 34.8015 7.94676 34.8032C8.02052 34.8004 8.08223 34.8305 8.1319 34.8937C8.16439 34.9323 8.18241 34.9789 8.18596 35.0334C8.18503 35.0866 8.17513 35.1372 8.15627 35.1852C8.13741 35.2332 8.11155 35.2719 8.07869 35.3012C8.01744 35.3611 7.93892 35.4136 7.84313 35.4586C7.74286 35.5023 7.61224 35.525 7.45128 35.5267C7.29032 35.5283 7.08212 35.4919 6.82668 35.4174C6.68327 35.3756 6.55798 35.3634 6.4508 35.3807C6.34361 35.3981 6.24978 35.4364 6.16931 35.4956C6.08883 35.5548 6.02366 35.6281 5.9738 35.7157C5.92395 35.8033 5.88464 35.8964 5.85588 35.995L5.41866 37.494L5.32119 37.3781L7.07568 37.8898C7.15186 37.912 7.21031 37.9534 7.25102 38.0139C7.29172 38.0744 7.30097 38.1427 7.27875 38.2189ZM4.93466 37.3529L5.41502 35.7059C5.44396 35.5733 5.43444 35.4393 5.38645 35.3037C5.33977 35.1637 5.25518 35.0369 5.13269 34.9233C5.00702 34.804 4.85232 34.7176 4.66858 34.664C4.43106 34.5947 4.21165 34.6134 4.01036 34.72C3.81038 34.8221 3.67705 34.9875 3.61039 35.216L3.14768 36.8025L3.03565 36.7114L5.07919 37.3075L4.93466 37.3529Z" fill="#D74D3F"/>
<path d="M6.46604 26.8278C6.50016 26.7564 6.55037 26.7107 6.61666 26.6908C6.67875 26.6688 6.7434 26.6739 6.81062 26.706L10.7242 28.5758C10.804 28.614 10.8571 28.6703 10.8834 28.7448C10.9056 28.8173 10.8996 28.8893 10.8654 28.9607C10.8474 28.9985 10.823 29.0333 10.7923 29.0651C10.7575 29.0949 10.7224 29.1142 10.6872 29.1232L5.83149 30.1163L5.81609 29.9541L9.30742 31.6222C9.37465 31.6543 9.42032 31.7045 9.44446 31.7728C9.4664 31.8349 9.46031 31.9016 9.42618 31.9731C9.39407 32.0403 9.34696 32.0849 9.28488 32.1068C9.21859 32.1267 9.15183 32.1207 9.08461 32.0885L5.15843 30.2127C5.08281 30.1766 5.03293 30.1243 5.0088 30.0561C4.98667 29.9836 4.99166 29.9137 5.02378 29.8465C5.04185 29.8087 5.06831 29.7749 5.10319 29.7451C5.13586 29.7091 5.17193 29.6876 5.21137 29.6807L9.99855 28.7013L10.0602 28.8314L6.58781 27.1724C6.52059 27.1403 6.47601 27.0932 6.45407 27.0311C6.42993 26.9628 6.43392 26.895 6.46604 26.8278Z" fill="#D74D3F"/>
<path d="M11.868 22.5846C12.1711 22.7778 12.4212 23.0064 12.6183 23.2704C12.8115 23.5319 12.9481 23.8127 13.0281 24.1128C13.1081 24.4129 13.1234 24.7188 13.0742 25.0306C13.0249 25.3425 12.9087 25.642 12.7255 25.9294C12.5399 26.2207 12.3161 26.4546 12.0543 26.6309C11.795 26.8033 11.5124 26.9166 11.2066 26.9708C10.9008 27.025 10.5886 27.0198 10.27 26.9551C9.94745 26.888 9.63461 26.7578 9.33149 26.5646C9.02443 26.3689 8.77432 26.1403 8.58116 25.8788C8.38406 25.6148 8.24748 25.334 8.17142 25.0364C8.09142 24.7364 8.0748 24.4324 8.12156 24.1245C8.17082 23.8127 8.28828 23.5111 8.47394 23.2198C8.65709 22.9324 8.87958 22.7006 9.14142 22.5242C9.40327 22.3479 9.68709 22.2326 9.99288 22.1784C10.2947 22.1217 10.6069 22.1269 10.9295 22.1941C11.2481 22.2588 11.5609 22.3889 11.868 22.5846ZM11.5443 23.0925C11.2215 22.8867 10.8947 22.7698 10.5639 22.7416C10.2356 22.7096 9.93037 22.7586 9.64815 22.8887C9.36593 23.0188 9.132 23.2296 8.94634 23.5209C8.76068 23.8122 8.66721 24.1152 8.66592 24.4299C8.66714 24.7407 8.75161 25.0381 8.91934 25.3221C9.08706 25.6062 9.33233 25.851 9.65514 26.0568C9.97401 26.26 10.2996 26.3789 10.6318 26.4135C10.9601 26.4456 11.2653 26.3966 11.5476 26.2664C11.8323 26.1324 12.0675 25.9197 12.2531 25.6284C12.4388 25.337 12.531 25.036 12.5298 24.7252C12.5286 24.4145 12.4441 24.117 12.2764 23.833C12.1072 23.5425 11.8632 23.2957 11.5443 23.0925Z" fill="#D74D3F"/>
<path d="M15.4554 22.1237C15.2394 22.3933 15.0096 22.598 14.766 22.7378C14.5224 22.8776 14.2373 22.9722 13.9106 23.0215C13.8647 23.0266 13.8199 23.0266 13.7761 23.0214C13.7316 23.0098 13.6912 22.9893 13.6548 22.9601C13.5965 22.9134 13.5615 22.8525 13.5499 22.7774C13.5376 22.6958 13.5562 22.624 13.6058 22.562C13.6467 22.511 13.7032 22.4815 13.7754 22.4736C14.0277 22.4424 14.2559 22.374 14.4601 22.2685C14.6672 22.1592 14.854 22.0008 15.0204 21.7931C15.1488 21.6328 15.2386 21.4685 15.2897 21.3001C15.3438 21.1281 15.3559 20.9674 15.3262 20.8179C15.2964 20.6684 15.2214 20.5455 15.1011 20.4492C14.9525 20.3361 14.7972 20.2835 14.6354 20.2914C14.4765 20.2957 14.3076 20.3459 14.129 20.442C13.9495 20.5315 13.7621 20.6535 13.5666 20.8079C13.3923 20.9434 13.219 21.0588 13.0469 21.1542C12.8777 21.246 12.7104 21.3093 12.5448 21.3441C12.3757 21.3761 12.2076 21.3731 12.0407 21.335C11.8731 21.2904 11.7073 21.2025 11.5433 21.0711C11.3356 20.9048 11.1973 20.7042 11.1282 20.4694C11.0591 20.2346 11.06 19.9871 11.1309 19.7268C11.1981 19.4637 11.3325 19.2064 11.5339 18.9551C11.7119 18.7328 11.9162 18.5525 12.1466 18.4142C12.38 18.2722 12.6086 18.1921 12.8325 18.1741C12.9601 18.1567 13.0567 18.1742 13.1222 18.2268C13.1769 18.2706 13.2089 18.3351 13.2183 18.4204C13.227 18.4991 13.208 18.5677 13.1613 18.626C13.1292 18.666 13.0855 18.6908 13.03 18.7002C12.9112 18.7067 12.7865 18.7354 12.656 18.7864C12.5254 18.8373 12.3985 18.9061 12.2753 18.9928C12.152 19.0794 12.0451 19.1792 11.9546 19.2922C11.8204 19.4598 11.7277 19.6278 11.6765 19.7961C11.6217 19.9616 11.6107 20.1172 11.6434 20.2631C11.6754 20.4023 11.7533 20.5216 11.8772 20.6208C12.0156 20.7317 12.1625 20.7836 12.3178 20.7764C12.4694 20.7663 12.6284 20.7172 12.7947 20.6291C12.9573 20.5381 13.1262 20.4281 13.3012 20.2992C13.488 20.1557 13.6703 20.0326 13.8483 19.93C14.0255 19.8207 14.1998 19.745 14.3712 19.7029C14.5425 19.6607 14.7171 19.663 14.895 19.7098C15.0721 19.75 15.2554 19.846 15.4448 19.9978C15.6452 20.1583 15.7785 20.3578 15.8447 20.5963C15.9108 20.8347 15.9107 21.0888 15.8441 21.3585C15.7769 21.6216 15.6473 21.8767 15.4554 22.1237Z" fill="#D74D3F"/>
<path d="M20.0081 16.3595C20.066 16.3047 20.1348 16.2785 20.2143 16.2807C20.2906 16.2795 20.3562 16.3079 20.4109 16.3659C20.4657 16.4238 20.4903 16.4908 20.4849 16.567C20.4794 16.6431 20.4477 16.7085 20.3898 16.7633L18.6212 18.435C18.5632 18.4898 18.4945 18.516 18.4149 18.5138C18.3388 18.5083 18.2733 18.4766 18.2186 18.4187L15.2278 15.2546C15.1731 15.1967 15.1484 15.1296 15.1539 15.0535C15.1561 14.9739 15.1879 14.9052 15.2493 14.8472C15.3072 14.7924 15.3759 14.7662 15.4555 14.7684C15.5318 14.7673 15.5974 14.7956 15.6521 14.8536L18.5462 17.9155L18.357 17.9201L20.0081 16.3595Z" fill="#D74D3F"/>
<path d="M19.9811 11.7386L21.151 15.9077C21.1708 15.9634 21.1724 16.0184 21.1557 16.0729C21.1391 16.1274 21.1105 16.1705 21.07 16.2021C21.0002 16.2567 20.9343 16.2786 20.8724 16.2677C20.8106 16.2567 20.7595 16.2255 20.7193 16.174C20.6955 16.1512 20.6776 16.1207 20.6657 16.0827L19.378 11.4901C19.3562 11.4242 19.355 11.3659 19.3746 11.3151C19.3949 11.2577 19.4304 11.2122 19.4811 11.1785C19.5289 11.1411 19.5813 11.1209 19.6382 11.1179C19.6987 11.112 19.7536 11.1254 19.8029 11.1581L23.917 13.4882C23.951 13.509 23.9795 13.5342 24.0025 13.5636C24.0542 13.6298 24.0739 13.7004 24.0613 13.7753C24.0459 13.8466 24.0107 13.9038 23.9555 13.9469C23.9114 13.9814 23.8608 14.0002 23.8039 14.0032C23.747 14.0062 23.6907 13.9909 23.6349 13.9575L19.8554 11.828L19.9811 11.7386ZM20.724 14.7928L20.5753 14.2159L22.2139 12.9352L22.633 13.3009L20.724 14.7928Z" fill="#D74D3F"/>
<path d="M22.452 8.93098C22.4881 8.90913 22.5324 8.8961 22.5846 8.8919C22.6409 8.88527 22.6908 8.89074 22.7343 8.90829L25.7903 10.3582L25.5759 10.4796L25.7333 7.09498C25.7393 6.98714 25.7857 6.90974 25.8725 6.86278C25.9391 6.82796 26.0099 6.81806 26.0848 6.83309C26.1597 6.84812 26.219 6.89177 26.2627 6.96404L28.5165 10.6916C28.5578 10.7599 28.5689 10.8327 28.5499 10.91C28.5308 10.9873 28.4852 11.0478 28.4129 11.0915C28.3406 11.1352 28.2659 11.1475 28.1886 11.1284C28.1113 11.1094 28.052 11.0657 28.0107 10.9975L26.0335 7.72756L26.2023 7.66664L26.0883 10.6878C26.0812 10.7305 26.0657 10.7728 26.0417 10.8147C26.0217 10.8542 25.9936 10.8849 25.9575 10.9067C25.9214 10.9286 25.8792 10.9404 25.8309 10.9422C25.7826 10.9439 25.7379 10.9381 25.6969 10.9245L22.9866 9.61104L23.0184 9.378L25.072 12.7744C25.1132 12.8426 25.1264 12.9142 25.1113 12.9891C25.0963 13.064 25.0547 13.122 24.9864 13.1633C24.9182 13.2046 24.8474 13.2145 24.7741 13.193C24.7048 13.1691 24.6496 13.123 24.6083 13.0548L22.3544 9.32716C22.3156 9.26293 22.3037 9.19337 22.3187 9.1185C22.3353 9.03718 22.3797 8.97467 22.452 8.93098Z" fill="#D74D3F"/>
<path d="M29.4432 5.20266C29.6766 5.09574 29.913 5.0568 30.1522 5.08586C30.3914 5.11491 30.6098 5.20488 30.8072 5.35575C31.009 5.50468 31.1681 5.70647 31.2848 5.96112C31.3995 6.21152 31.4483 6.46386 31.4313 6.71812C31.4185 6.97044 31.3459 7.19879 31.2136 7.40316C31.0813 7.60753 30.8984 7.76318 30.665 7.8701L29.3727 8.46205L29.3822 8.36525L30.1171 9.96953C30.1501 10.0417 30.155 10.1139 30.1316 10.1862C30.1083 10.2585 30.0605 10.3112 29.9884 10.3443C29.912 10.3793 29.8388 10.382 29.7687 10.3524C29.703 10.321 29.6536 10.2691 29.6205 10.197L27.8155 6.2563C27.7824 6.18415 27.7786 6.11404 27.8039 6.04597C27.8315 5.97171 27.8814 5.91805 27.9535 5.88501L29.4432 5.20266ZM30.4405 7.3799C30.5805 7.31575 30.6861 7.22118 30.7572 7.09618C30.8283 6.97119 30.8656 6.82832 30.869 6.6676C30.8724 6.50687 30.8391 6.35011 30.7691 6.19732C30.6952 6.03604 30.5983 5.90844 30.4782 5.81452C30.3582 5.7206 30.2286 5.66187 30.0895 5.63832C29.9484 5.61052 29.8078 5.6287 29.6677 5.69286L28.3754 6.28481L28.3879 6.19437L29.2219 8.0151L29.1481 7.97185L30.4405 7.3799Z" fill="#D74D3F"/>
<path d="M32.2296 4.0484L34.5846 3.23106C34.6596 3.20504 34.7319 3.2071 34.8017 3.23725C34.8715 3.26739 34.9193 3.31995 34.9454 3.39492C34.9714 3.46989 34.9663 3.54082 34.9303 3.6077C34.8926 3.67016 34.8364 3.71441 34.7614 3.74043L32.6313 4.47971L32.6518 4.34658L33.2327 6.02023L33.1412 5.97042L34.9803 5.33216C35.0552 5.30614 35.1276 5.3082 35.1974 5.33835C35.2671 5.36849 35.315 5.42105 35.341 5.49602C35.3671 5.571 35.362 5.64192 35.3259 5.7088C35.2883 5.77127 35.232 5.81551 35.1571 5.84153L33.3379 6.4729L33.3635 6.39729L33.9582 8.11063L33.9024 8.0781L36.0126 7.34571C36.0876 7.31969 36.1607 7.32396 36.232 7.35851C36.3033 7.39307 36.3504 7.44342 36.3734 7.50957C36.3994 7.58454 36.3944 7.65547 36.3583 7.72235C36.3222 7.78923 36.2667 7.83567 36.1917 7.86169L33.8367 8.67903C33.7617 8.70505 33.6886 8.70078 33.6173 8.66623C33.5504 8.63014 33.504 8.57462 33.478 8.49964L32.0568 4.40484C32.0308 4.32987 32.0336 4.25971 32.0653 4.19436C32.0999 4.12307 32.1546 4.07442 32.2296 4.0484Z" fill="#D74D3F"/>
<path d="M38.775 7.24345C38.4395 7.32562 38.1326 7.34792 37.8542 7.31034C37.5759 7.27277 37.2922 7.17403 37.0031 7.01413C36.9636 6.99016 36.9281 6.96282 36.8965 6.93209C36.8684 6.89573 36.8488 6.85487 36.8377 6.80953C36.8199 6.73698 36.8293 6.6674 36.8658 6.60077C36.9058 6.52851 36.9643 6.48293 37.0414 6.46406C37.1049 6.44851 37.1677 6.45957 37.2298 6.49723C37.4488 6.62623 37.6714 6.71109 37.8977 6.7518C38.1285 6.79141 38.3731 6.77957 38.6315 6.71628C38.831 6.66743 39.0024 6.59183 39.1455 6.48949C39.2932 6.38603 39.4008 6.26597 39.4682 6.1293C39.5357 5.99263 39.5511 5.84948 39.5145 5.69985C39.4655 5.51959 39.3745 5.38328 39.2413 5.29093C39.1127 5.19747 38.9483 5.13441 38.748 5.10174C38.5512 5.06343 38.3282 5.04594 38.0791 5.04926C37.8583 5.05046 37.6506 5.03644 37.456 5.0072C37.266 4.97684 37.0947 4.92507 36.9422 4.85187C36.7886 4.77414 36.6572 4.66934 36.548 4.53748C36.4422 4.39997 36.3644 4.2292 36.3144 4.02516C36.2511 3.76671 36.2636 3.52334 36.3519 3.29506C36.4402 3.06678 36.5917 2.87107 36.8065 2.70794C37.0201 2.54027 37.2834 2.41812 37.5963 2.34151C37.8729 2.27378 38.1447 2.25527 38.4117 2.286C38.6833 2.31561 38.9134 2.39145 39.1019 2.51351C39.2136 2.57745 39.2795 2.65023 39.2995 2.73184C39.3162 2.79986 39.3022 2.87055 39.2577 2.94393C39.2166 3.01167 39.1598 3.05442 39.0873 3.07218C39.0374 3.0844 38.9876 3.07736 38.9379 3.05108C38.8397 2.98381 38.7234 2.9306 38.5888 2.89146C38.4543 2.85231 38.3117 2.82955 38.1612 2.82316C38.0106 2.81677 37.8651 2.83079 37.7245 2.86521C37.5159 2.91629 37.3401 2.993 37.1969 3.09534C37.0527 3.19314 36.9491 3.30983 36.8861 3.44539C36.8266 3.57531 36.8158 3.71735 36.8535 3.87151C36.8957 4.04381 36.9806 4.17443 37.1081 4.26335C37.2345 4.34775 37.3904 4.40568 37.576 4.43714C37.7604 4.46407 37.9613 4.47976 38.1787 4.4842C38.4142 4.48421 38.6337 4.49772 38.8374 4.52474C39.0445 4.54612 39.2288 4.5923 39.3904 4.66327C39.552 4.73425 39.689 4.84247 39.8015 4.98794C39.9175 5.12776 40.0043 5.31556 40.062 5.55134C40.1231 5.80072 40.1072 6.04011 40.0144 6.2695C39.9216 6.49889 39.7667 6.70024 39.5496 6.87356C39.3359 7.04123 39.0777 7.16453 38.775 7.24345Z" fill="#D74D3F"/>
<path d="M49 90.4956C71.9152 90.4956 90.4916 71.9192 90.4916 49.004C90.4916 26.0889 71.9152 7.51245 49 7.51245C26.0848 7.51245 7.50842 26.0889 7.50842 49.004C7.50842 71.9192 26.0848 90.4956 49 90.4956Z" fill="#D74D3F"/>
</g>
<defs>
<clipPath id="clip0_698_4943">
<rect width="98" height="98.004" fill="white"/>
</clipPath>
</defs>
</svg>
