<svg width="560" height="420" viewBox="0 0 560 420" fill="none" xmlns="http://www.w3.org/2000/svg">
<rect width="560" height="420" rx="16" fill="#151667"/>
<path opacity="0.5" fill-rule="evenodd" clip-rule="evenodd" d="M516.298 472.597C584.394 472.597 639.597 417.394 639.597 349.298C639.597 281.203 584.394 226 516.298 226C448.203 226 393 281.203 393 349.298C393 417.394 448.203 472.597 516.298 472.597ZM516.299 421.048C555.926 421.048 588.049 388.924 588.049 349.298C588.049 309.672 555.926 277.548 516.299 277.548C476.673 277.548 444.549 309.672 444.549 349.298C444.549 388.924 476.673 421.048 516.299 421.048Z" fill="#2AA0A1"/>
<path opacity="0.5" fill-rule="evenodd" clip-rule="evenodd" d="M54.5 233C99.5112 233 136 196.511 136 151.5C136 106.489 99.5112 70 54.5 70C9.48879 70 -27 106.489 -27 151.5C-27 196.511 9.48879 233 54.5 233ZM54.5002 198.926C80.6932 198.926 101.927 177.693 101.927 151.5C101.927 125.307 80.6932 104.073 54.5002 104.073C28.3072 104.073 7.07365 125.307 7.07365 151.5C7.07365 177.693 28.3072 198.926 54.5002 198.926Z" fill="#2AA0A1"/>
</svg>
