<svg width="91" height="46" viewBox="0 0 91 46" fill="none" xmlns="http://www.w3.org/2000/svg">
<rect width="22.75" height="46" fill="#0C2750"/>
<rect x="22.75" y="23" width="22.75" height="23" fill="#E7BC87"/>
<rect x="45.5" width="22.75" height="23" fill="#0C2750"/>
<rect x="68.25" width="22.75" height="46" fill="#E7BC87"/>
<path d="M13.6666 5.635H9.0616L5.1616 16.03H9.4216L10.7566 12.475H11.9566L13.3066 16.03H17.5666L13.6666 5.635ZM10.8166 10.765L11.3566 9.31L11.9116 10.765H10.8166Z" fill="#F1EEED"/>
<path d="M36.4166 28.635H31.8116L27.9116 39.03H32.1716L33.5066 35.475H34.7066L36.0566 39.03H40.3166L36.4166 28.635ZM33.5666 33.765L34.1066 32.31L34.6616 33.765H33.5666Z" fill="#F1EEED"/>
<path d="M59.2263 5.5L57.2463 9.19L55.2663 5.5H49.3563V16.03H53.3013V9.28L55.5513 16.03H58.9563L61.1913 9.28V16.03H65.1513V5.5H59.2263Z" fill="#F1EEED"/>
<path d="M82.1086 28.635H77.5036L73.6036 39.03H77.8636L79.1986 35.475H80.3986L81.7486 39.03H86.0086L82.1086 28.635ZM79.2586 33.765L79.7986 32.31L80.3536 33.765H79.2586Z" fill="#F1EEED"/>
</svg>
